<svg xmlns="http://www.w3.org/2000/svg" xmlns:xlink="http://www.w3.org/1999/xlink" xmlns:xodm="http://www.corel.com/coreldraw/odm/2003" xml:space="preserve" version="1.1" shape-rendering="geometricPrecision" text-rendering="geometricPrecision" image-rendering="optimizeQuality" fill-rule="evenodd" clip-rule="evenodd" width="1800px" height="1200px" viewBox="0 0 1800 1200">
<title property="dc:title">flag_evropeyskoy_federatsii_futbola_uefa</title>
<desc property="dc:creator">www.interflag.ru</desc>
<g id="Layer_x0020_1">
<metadata id="CorelCorpID_0Corel-Layer"/>
<g id="_2920850032400">
<g>
<g>
<polygon fill="#254896" points="1800,1200 0,1200 0,0 1800,0 "/>
<path fill="#D39D1F" d="M899.98 107.89c-271.76,0 -492.09,220.33 -492.09,492.11 0,271.78 220.33,492.11 492.09,492.11 271.8,0 492.13,-220.33 492.13,-492.11 0,-271.78 -220.33,-492.11 -492.13,-492.11z"/>
<path fill="#E22228" d="M899.98 141.19c-253.38,0 -458.82,205.41 -458.82,458.81 0,253.4 205.44,458.81 458.82,458.81 253.42,0 458.8,-205.41 458.8,-458.81 0,-253.4 -205.38,-458.81 -458.8,-458.81z"/>
<g>
<path fill="#FEFEFE" d="M679.48 256.7l36.2 42.42c21.15,24.77 9.57,49.44 -13.44,69.03 -24.27,20.74 -50.45,25.63 -70.14,2.49l-36.31 -42.49 20.9 -17.83 36.66 42.97c9.11,10.73 23.36,9.78 35.39,-0.47 11.03,-9.44 16.82,-23.29 5.44,-36.66l-35.55 -41.64 20.85 -17.82z"/>
<path id="_1" fill="none" fill-rule="nonzero" stroke="#FEFEFE" stroke-width="0.9" stroke-miterlimit="22.9256" d="M679.48 256.7l36.2 42.42c21.15,24.77 9.57,49.44 -13.44,69.03 -24.27,20.74 -50.45,25.63 -70.14,2.49l-36.31 -42.49 20.9 -17.83 36.66 42.97c9.11,10.73 23.36,9.78 35.39,-0.47 11.03,-9.44 16.82,-23.29 5.44,-36.66l-35.55 -41.64 20.85 -17.82z"/>
</g>
<g>
<polygon fill="#FEFEFE" points="867.95,292.75 789.1,312.11 765.68,216.74 843.38,197.63 847.7,215.13 796.6,227.67 801.54,247.68 850.22,235.7 854.55,253.17 805.82,265.16 811.46,288.06 863.62,275.27 "/>
<polygon id="_1_0" fill="none" fill-rule="nonzero" stroke="#FEFEFE" stroke-width="0.9" stroke-miterlimit="22.9256" points="867.95,292.75 789.1,312.11 765.68,216.74 843.38,197.63 847.7,215.13 796.6,227.67 801.54,247.68 850.22,235.7 854.55,253.17 805.82,265.16 811.46,288.06 863.62,275.27 "/>
</g>
<g>
<polygon fill="#FEFEFE" points="1007.93,227.01 960.3,218.38 956.42,239.93 1004,248.57 1000.78,266.26 953.19,257.63 945.99,297.33 919,292.45 936.53,195.77 1011.1,209.29 "/>
<polygon id="_1_1" fill="none" fill-rule="nonzero" stroke="#FEFEFE" stroke-width="0.9" stroke-miterlimit="22.9256" points="1007.93,227.01 960.3,218.38 956.42,239.93 1004,248.57 1000.78,266.26 953.19,257.63 945.99,297.33 919,292.45 936.53,195.77 1011.1,209.29 "/>
</g>
<g>
<path fill="#FEFEFE" d="M1128.37 387.03l-24.07 -17.14 3.93 -21.1 -40.08 -28.57 -17.98 11.07 -23.66 -16.87 93.2 -54.2 25.89 18.46 -17.23 108.35zm-9.01 -98.26l-35.34 21.7 27.58 19.71 7.76 -41.41z"/>
<path id="_1_2" fill="none" fill-rule="nonzero" stroke="#FEFEFE" stroke-width="0.9" stroke-miterlimit="22.9256" d="M1128.37 387.03l-24.07 -17.14 3.93 -21.1 -40.08 -28.57 -17.98 11.07 -23.66 -16.87 93.2 -54.2 25.89 18.46 -17.23 108.35zm-9.01 -98.26l-35.34 21.7 27.58 19.71 7.76 -41.41z"/>
</g>
<path fill="#FEFEFE" d="M899.92 333.31c-147.28,0 -266.66,119.38 -266.66,266.67 0,147.28 119.38,266.66 266.66,266.66 147.29,0 266.72,-119.38 266.72,-266.66 0,-147.29 -119.43,-266.67 -266.72,-266.67z"/>
<g>
<path fill="none" fill-rule="nonzero" stroke="#FEFEFE" stroke-width="0.9" stroke-miterlimit="22.9256" d="M899.92 333.31c-147.28,0 -266.66,119.38 -266.66,266.67 0,147.28 119.38,266.66 266.66,266.66 147.29,0 266.72,-119.38 266.72,-266.66 0,-147.29 -119.43,-266.67 -266.72,-266.67z"/>
</g>
<path fill="#254896" d="M899.52 349.34c-138.47,0 -250.66,112.21 -250.66,250.66 0,138.44 112.19,250.68 250.66,250.68 138.42,0 250.66,-112.24 250.66,-250.68 0,-138.45 -112.24,-250.66 -250.66,-250.66z"/>
<path fill="#FEFEFE" d="M947.51 359.56c2.78,0 5.14,-1.85 5.92,-4.39 -4.02,-0.88 -8.07,-1.66 -12.15,-2.34 -0.01,0.17 -0.02,0.34 -0.02,0.52 0,3.42 2.77,6.21 6.25,6.21z"/>
<path fill="#FEFEFE" d="M929.88 375.4c3.43,0 6.2,-2.79 6.2,-6.22 0,-3.44 -2.78,-6.24 -6.2,-6.24 -3.42,0 -6.24,2.8 -6.24,6.24 0,3.43 2.82,6.22 6.24,6.22z"/>
<path fill="#FEFEFE" d="M947.51 375.4c3.42,0 6.19,-2.79 6.19,-6.22 0,-3.44 -2.77,-6.24 -6.19,-6.24 -3.48,0 -6.25,2.8 -6.25,6.24 0,3.43 2.77,6.22 6.25,6.22z"/>
<path fill="#FEFEFE" d="M965.08 375.4c3.42,0 6.19,-2.79 6.19,-6.22 0,-3.44 -2.77,-6.24 -6.19,-6.24 -3.42,0 -6.25,2.8 -6.25,6.24 0,3.43 2.83,6.22 6.25,6.22z"/>
<path fill="#FEFEFE" d="M982.65 375.4c3.48,0 6.25,-2.79 6.25,-6.22 0,-1.5 -0.53,-2.87 -1.4,-3.95 -2.01,-0.75 -4.02,-1.47 -6.05,-2.17 -2.85,0.56 -4.99,3.09 -4.99,6.12 0,3.43 2.77,6.22 6.19,6.22z"/>
<path fill="#FEFEFE" d="M1000.27 375.4c2.11,0 3.96,-1.06 5.08,-2.66 -3.66,-1.71 -7.37,-3.33 -11.13,-4.87 -0.09,0.42 -0.13,0.86 -0.13,1.31 0,3.43 2.76,6.22 6.18,6.22z"/>
<path fill="#FEFEFE" d="M755.36 408.11c3.42,0 6.19,-2.78 6.19,-6.23 0,-3.44 -2.77,-6.21 -6.19,-6.21 -0.42,0 -0.84,0.04 -1.24,0.12 -1.42,1.01 -2.83,2.04 -4.23,3.08 -0.49,0.9 -0.77,1.92 -0.77,3.01 0,3.45 2.77,6.23 6.24,6.23z"/>
<path fill="#FEFEFE" d="M912.26 391.26c3.42,0 6.24,-2.79 6.24,-6.21 0,-3.46 -2.82,-6.25 -6.24,-6.25 -3.42,0 -6.19,2.79 -6.19,6.25 0,3.42 2.77,6.21 6.19,6.21z"/>
<path fill="#FEFEFE" d="M929.88 391.26c3.43,0 6.2,-2.79 6.2,-6.21 0,-3.46 -2.78,-6.25 -6.2,-6.25 -3.42,0 -6.24,2.79 -6.24,6.25 0,3.42 2.82,6.21 6.24,6.21z"/>
<path fill="#FEFEFE" d="M947.51 391.26c3.42,0 6.19,-2.79 6.19,-6.21 0,-3.46 -2.77,-6.25 -6.19,-6.25 -3.48,0 -6.25,2.79 -6.25,6.25 0,3.42 2.77,6.21 6.25,6.21z"/>
<path fill="#FEFEFE" d="M982.65 391.26c3.48,0 6.25,-2.79 6.25,-6.21 0,-3.46 -2.77,-6.25 -6.25,-6.25 -3.42,0 -6.19,2.79 -6.19,6.25 0,3.42 2.77,6.21 6.19,6.21z"/>
<path fill="#FEFEFE" d="M1000.27 391.26c3.43,0 6.2,-2.79 6.2,-6.21 0,-3.46 -2.77,-6.25 -6.2,-6.25 -3.42,0 -6.18,2.79 -6.18,6.25 0,3.42 2.76,6.21 6.18,6.21z"/>
<path fill="#FEFEFE" d="M1017.85 391.26c3.42,0 6.24,-2.79 6.24,-6.21 0,-1.11 -0.29,-2.15 -0.8,-3.05 -1.91,-1.09 -3.84,-2.15 -5.78,-3.19 -3.27,0.18 -5.86,2.9 -5.86,6.24 0,3.42 2.77,6.21 6.2,6.21z"/>
<path fill="#FEFEFE" d="M1035.47 391.26c0.79,0 1.53,-0.14 2.22,-0.41 -2.76,-1.83 -5.56,-3.62 -8.4,-5.34 0.24,3.21 2.91,5.75 6.18,5.75z"/>
<path fill="#FEFEFE" d="M737.74 423.94c3.42,0 6.19,-2.79 6.19,-6.22 0,-3.45 -2.77,-6.24 -6.19,-6.24 -3.43,0 -6.19,2.79 -6.19,6.24 0,3.43 2.76,6.22 6.19,6.22z"/>
<path fill="#FEFEFE" d="M755.36 423.94c3.42,0 6.19,-2.79 6.19,-6.22 0,-3.45 -2.77,-6.24 -6.19,-6.24 -3.47,0 -6.24,2.79 -6.24,6.24 0,3.43 2.77,6.22 6.24,6.22z"/>
<path fill="#FEFEFE" d="M912.26 407.07c3.42,0 6.24,-2.77 6.24,-6.22 0,-3.45 -2.82,-6.22 -6.24,-6.22 -3.42,0 -6.19,2.77 -6.19,6.22 0,3.45 2.77,6.22 6.19,6.22z"/>
<path fill="#FEFEFE" d="M929.88 407.07c3.43,0 6.2,-2.77 6.2,-6.22 0,-3.45 -2.78,-6.22 -6.2,-6.22 -3.42,0 -6.24,2.77 -6.24,6.22 0,3.45 2.82,6.22 6.24,6.22z"/>
<path fill="#FEFEFE" d="M947.51 407.07c3.42,0 6.19,-2.77 6.19,-6.22 0,-3.45 -2.77,-6.22 -6.19,-6.22 -3.48,0 -6.25,2.77 -6.25,6.22 0,3.45 2.77,6.22 6.25,6.22z"/>
<path fill="#FEFEFE" d="M982.65 407.07c3.48,0 6.25,-2.77 6.25,-6.22 0,-3.45 -2.77,-6.22 -6.25,-6.22 -3.42,0 -6.19,2.77 -6.19,6.22 0,3.45 2.77,6.22 6.19,6.22z"/>
<path fill="#FEFEFE" d="M1000.27 407.07c3.43,0 6.2,-2.77 6.2,-6.22 0,-3.45 -2.77,-6.22 -6.2,-6.22 -3.42,0 -6.18,2.77 -6.18,6.22 0,3.45 2.76,6.22 6.18,6.22z"/>
<path fill="#FEFEFE" d="M1017.85 407.07c3.42,0 6.24,-2.77 6.24,-6.22 0,-3.45 -2.82,-6.22 -6.24,-6.22 -3.43,0 -6.2,2.77 -6.2,6.22 0,3.45 2.77,6.22 6.2,6.22z"/>
<path fill="#FEFEFE" d="M1035.47 407.07c3.43,0 6.19,-2.77 6.19,-6.22 0,-3.45 -2.76,-6.22 -6.19,-6.22 -3.43,0 -6.19,2.77 -6.19,6.22 0,3.45 2.76,6.22 6.19,6.22z"/>
<path fill="#FEFEFE" d="M1053.09 407.07c1.68,0 3.2,-0.66 4.32,-1.74 -3.19,-2.59 -6.44,-5.1 -9.75,-7.53 -0.52,0.9 -0.81,1.94 -0.81,3.05 0,3.45 2.82,6.22 6.24,6.22z"/>
<path fill="#FEFEFE" d="M894.68 422.93c3.43,0 6.2,-2.79 6.2,-6.22 0,-3.45 -2.77,-6.24 -6.2,-6.24 -3.42,0 -6.19,2.79 -6.19,6.24 0,3.43 2.77,6.22 6.19,6.22z"/>
<path fill="#FEFEFE" d="M912.26 422.93c3.42,0 6.24,-2.79 6.24,-6.22 0,-3.45 -2.82,-6.24 -6.24,-6.24 -3.42,0 -6.19,2.79 -6.19,6.24 0,3.43 2.77,6.22 6.19,6.22z"/>
<path fill="#FEFEFE" d="M929.88 422.93c3.43,0 6.2,-2.79 6.2,-6.22 0,-3.45 -2.78,-6.24 -6.2,-6.24 -3.42,0 -6.24,2.79 -6.24,6.24 0,3.43 2.82,6.22 6.24,6.22z"/>
<path fill="#FEFEFE" d="M965.08 422.93c3.42,0 6.19,-2.79 6.19,-6.22 0,-3.45 -2.77,-6.24 -6.19,-6.24 -3.42,0 -6.25,2.79 -6.25,6.24 0,3.43 2.83,6.22 6.25,6.22z"/>
<path fill="#FEFEFE" d="M982.65 422.93c3.48,0 6.25,-2.79 6.25,-6.22 0,-3.45 -2.77,-6.24 -6.25,-6.24 -3.42,0 -6.19,2.79 -6.19,6.24 0,3.43 2.77,6.22 6.19,6.22z"/>
<path fill="#FEFEFE" d="M1000.27 422.93c3.43,0 6.2,-2.79 6.2,-6.22 0,-3.45 -2.77,-6.24 -6.2,-6.24 -3.42,0 -6.18,2.79 -6.18,6.24 0,3.43 2.76,6.22 6.18,6.22z"/>
<path fill="#FEFEFE" d="M1017.85 422.93c3.42,0 6.24,-2.79 6.24,-6.22 0,-3.45 -2.82,-6.24 -6.24,-6.24 -3.43,0 -6.2,2.79 -6.2,6.24 0,3.43 2.77,6.22 6.2,6.22z"/>
<path fill="#FEFEFE" d="M1035.47 422.93c3.43,0 6.19,-2.79 6.19,-6.22 0,-3.45 -2.76,-6.24 -6.19,-6.24 -3.43,0 -6.19,2.79 -6.19,6.24 0,3.43 2.76,6.22 6.19,6.22z"/>
<path fill="#FEFEFE" d="M1053.09 422.93c3.43,0 6.2,-2.79 6.2,-6.22 0,-3.45 -2.77,-6.24 -6.2,-6.24 -3.42,0 -6.24,2.79 -6.24,6.24 0,3.43 2.82,6.22 6.24,6.22z"/>
<path fill="#FEFEFE" d="M877.07 438.77c3.42,0 6.24,-2.8 6.24,-6.22 0,-3.45 -2.82,-6.24 -6.24,-6.24 -3.43,0 -6.2,2.79 -6.2,6.24 0,3.42 2.77,6.22 6.2,6.22z"/>
<path fill="#FEFEFE" d="M894.68 438.77c3.43,0 6.2,-2.8 6.2,-6.22 0,-3.45 -2.77,-6.24 -6.2,-6.24 -3.42,0 -6.19,2.79 -6.19,6.24 0,3.42 2.77,6.22 6.19,6.22z"/>
<path fill="#FEFEFE" d="M912.26 438.77c3.42,0 6.24,-2.8 6.24,-6.22 0,-3.45 -2.82,-6.24 -6.24,-6.24 -3.42,0 -6.19,2.79 -6.19,6.24 0,3.42 2.77,6.22 6.19,6.22z"/>
<path fill="#FEFEFE" d="M929.88 438.77c3.43,0 6.2,-2.8 6.2,-6.22 0,-3.45 -2.78,-6.24 -6.2,-6.24 -3.42,0 -6.24,2.79 -6.24,6.24 0,3.42 2.82,6.22 6.24,6.22z"/>
<path fill="#FEFEFE" d="M965.08 438.77c3.42,0 6.19,-2.8 6.19,-6.22 0,-3.45 -2.77,-6.24 -6.19,-6.24 -3.42,0 -6.25,2.79 -6.25,6.24 0,3.42 2.83,6.22 6.25,6.22z"/>
<path fill="#FEFEFE" d="M982.65 438.77c3.48,0 6.25,-2.8 6.25,-6.22 0,-3.45 -2.77,-6.24 -6.25,-6.24 -3.42,0 -6.19,2.79 -6.19,6.24 0,3.42 2.77,6.22 6.19,6.22z"/>
<path fill="#FEFEFE" d="M1000.27 438.77c3.43,0 6.2,-2.8 6.2,-6.22 0,-3.45 -2.77,-6.24 -6.2,-6.24 -3.42,0 -6.18,2.79 -6.18,6.24 0,3.42 2.76,6.22 6.18,6.22z"/>
<path fill="#FEFEFE" d="M1017.85 438.77c3.42,0 6.24,-2.8 6.24,-6.22 0,-3.45 -2.82,-6.24 -6.24,-6.24 -3.43,0 -6.2,2.79 -6.2,6.24 0,3.42 2.77,6.22 6.2,6.22z"/>
<path fill="#FEFEFE" d="M1035.47 438.77c3.43,0 6.19,-2.8 6.19,-6.22 0,-3.45 -2.76,-6.24 -6.19,-6.24 -3.43,0 -6.19,2.79 -6.19,6.24 0,3.42 2.76,6.22 6.19,6.22z"/>
<path fill="#FEFEFE" d="M1053.09 438.77c3.43,0 6.2,-2.8 6.2,-6.22 0,-3.45 -2.77,-6.24 -6.2,-6.24 -3.42,0 -6.24,2.79 -6.24,6.24 0,3.42 2.82,6.22 6.24,6.22z"/>
<path fill="#FEFEFE" d="M1070.67 438.77c3.42,0 6.19,-2.8 6.19,-6.22 0,-3.45 -2.77,-6.24 -6.19,-6.24 -3.42,0 -6.25,2.79 -6.25,6.24 0,3.42 2.83,6.22 6.25,6.22z"/>
<path fill="#FEFEFE" d="M1088.3 438.77c0.94,0 1.83,-0.21 2.63,-0.59 -2.58,-3.04 -5.22,-6.02 -7.94,-8.94 -0.59,0.96 -0.94,2.1 -0.94,3.31 0,3.42 2.77,6.22 6.25,6.22z"/>
<path fill="#FEFEFE" d="M806.67 454.63c3.42,0 6.19,-2.79 6.19,-6.22 0,-3.45 -2.77,-6.24 -6.19,-6.24 -3.43,0 -6.19,2.79 -6.19,6.24 0,3.43 2.76,6.22 6.19,6.22z"/>
<path fill="#FEFEFE" d="M877.07 454.63c3.42,0 6.24,-2.79 6.24,-6.22 0,-3.45 -2.82,-6.24 -6.24,-6.24 -3.43,0 -6.2,2.79 -6.2,6.24 0,3.43 2.77,6.22 6.2,6.22z"/>
<path fill="#FEFEFE" d="M894.68 454.63c3.43,0 6.2,-2.79 6.2,-6.22 0,-3.45 -2.77,-6.24 -6.2,-6.24 -3.42,0 -6.19,2.79 -6.19,6.24 0,3.43 2.77,6.22 6.19,6.22z"/>
<path fill="#FEFEFE" d="M912.26 454.63c3.42,0 6.24,-2.79 6.24,-6.22 0,-3.45 -2.82,-6.24 -6.24,-6.24 -3.42,0 -6.19,2.79 -6.19,6.24 0,3.43 2.77,6.22 6.19,6.22z"/>
<path fill="#FEFEFE" d="M929.88 454.63c3.43,0 6.2,-2.79 6.2,-6.22 0,-3.45 -2.78,-6.24 -6.2,-6.24 -3.42,0 -6.24,2.79 -6.24,6.24 0,3.43 2.82,6.22 6.24,6.22z"/>
<path fill="#FEFEFE" d="M947.51 454.63c3.42,0 6.19,-2.79 6.19,-6.22 0,-3.45 -2.77,-6.24 -6.19,-6.24 -3.48,0 -6.25,2.79 -6.25,6.24 0,3.43 2.77,6.22 6.25,6.22z"/>
<path fill="#FEFEFE" d="M1017.85 454.63c3.42,0 6.24,-2.79 6.24,-6.22 0,-3.45 -2.82,-6.24 -6.24,-6.24 -3.43,0 -6.2,2.79 -6.2,6.24 0,3.43 2.77,6.22 6.2,6.22z"/>
<path fill="#FEFEFE" d="M1035.47 454.63c3.43,0 6.19,-2.79 6.19,-6.22 0,-3.45 -2.76,-6.24 -6.19,-6.24 -3.43,0 -6.19,2.79 -6.19,6.24 0,3.43 2.76,6.22 6.19,6.22z"/>
<path fill="#FEFEFE" d="M1053.09 454.63c3.43,0 6.2,-2.79 6.2,-6.22 0,-3.45 -2.77,-6.24 -6.2,-6.24 -3.42,0 -6.24,2.79 -6.24,6.24 0,3.43 2.82,6.22 6.24,6.22z"/>
<path fill="#FEFEFE" d="M1070.67 454.63c3.42,0 6.19,-2.79 6.19,-6.22 0,-3.45 -2.77,-6.24 -6.19,-6.24 -3.42,0 -6.25,2.79 -6.25,6.24 0,3.43 2.83,6.22 6.25,6.22z"/>
<path fill="#FEFEFE" d="M1088.3 454.63c3.41,0 6.19,-2.79 6.19,-6.22 0,-3.45 -2.78,-6.24 -6.2,-6.24 -3.47,0 -6.24,2.79 -6.24,6.24 0,3.43 2.77,6.22 6.25,6.22z"/>
<path fill="#FEFEFE" d="M789.1 470.44c3.42,0 6.19,-2.77 6.19,-6.22 0,-3.45 -2.77,-6.22 -6.19,-6.22 -3.43,0 -6.25,2.77 -6.25,6.22 0,3.45 2.82,6.22 6.25,6.22z"/>
<path fill="#FEFEFE" d="M806.67 470.44c3.42,0 6.19,-2.77 6.19,-6.22 0,-3.45 -2.77,-6.22 -6.19,-6.22 -3.43,0 -6.19,2.77 -6.19,6.22 0,3.45 2.76,6.22 6.19,6.22z"/>
<path fill="#FEFEFE" d="M877.07 470.44c3.42,0 6.24,-2.77 6.24,-6.22 0,-3.45 -2.82,-6.22 -6.24,-6.22 -3.43,0 -6.2,2.77 -6.2,6.22 0,3.45 2.77,6.22 6.2,6.22z"/>
<path fill="#FEFEFE" d="M894.68 470.44c3.43,0 6.2,-2.77 6.2,-6.22 0,-3.45 -2.77,-6.22 -6.2,-6.22 -3.42,0 -6.19,2.77 -6.19,6.22 0,3.45 2.77,6.22 6.19,6.22z"/>
<path fill="#FEFEFE" d="M912.26 470.44c3.42,0 6.24,-2.77 6.24,-6.22 0,-3.45 -2.82,-6.22 -6.24,-6.22 -3.42,0 -6.19,2.77 -6.19,6.22 0,3.45 2.77,6.22 6.19,6.22z"/>
<path fill="#FEFEFE" d="M929.88 470.44c3.43,0 6.2,-2.77 6.2,-6.22 0,-3.45 -2.78,-6.22 -6.2,-6.22 -3.42,0 -6.24,2.77 -6.24,6.22 0,3.45 2.82,6.22 6.24,6.22z"/>
<path fill="#FEFEFE" d="M947.51 470.44c3.42,0 6.19,-2.77 6.19,-6.22 0,-3.45 -2.77,-6.22 -6.19,-6.22 -3.48,0 -6.25,2.77 -6.25,6.22 0,3.45 2.77,6.22 6.25,6.22z"/>
<path fill="#FEFEFE" d="M1000.27 470.44c3.43,0 6.2,-2.77 6.2,-6.22 0,-3.45 -2.77,-6.22 -6.2,-6.22 -3.42,0 -6.18,2.77 -6.18,6.22 0,3.45 2.76,6.22 6.18,6.22z"/>
<path fill="#FEFEFE" d="M1017.85 470.44c3.42,0 6.24,-2.77 6.24,-6.22 0,-3.45 -2.82,-6.22 -6.24,-6.22 -3.43,0 -6.2,2.77 -6.2,6.22 0,3.45 2.77,6.22 6.2,6.22z"/>
<path fill="#FEFEFE" d="M1035.47 470.44c3.43,0 6.19,-2.77 6.19,-6.22 0,-3.45 -2.76,-6.22 -6.19,-6.22 -3.43,0 -6.19,2.77 -6.19,6.22 0,3.45 2.76,6.22 6.19,6.22z"/>
<path fill="#FEFEFE" d="M1053.09 470.44c3.43,0 6.2,-2.77 6.2,-6.22 0,-3.45 -2.77,-6.22 -6.2,-6.22 -3.42,0 -6.24,2.77 -6.24,6.22 0,3.45 2.82,6.22 6.24,6.22z"/>
<path fill="#FEFEFE" d="M1070.67 470.44c3.42,0 6.19,-2.77 6.19,-6.22 0,-3.45 -2.77,-6.22 -6.19,-6.22 -3.42,0 -6.25,2.77 -6.25,6.22 0,3.45 2.83,6.22 6.25,6.22z"/>
<path fill="#FEFEFE" d="M1088.3 470.44c3.41,0 6.19,-2.77 6.19,-6.22 0,-3.45 -2.78,-6.22 -6.2,-6.22 -3.47,0 -6.24,2.77 -6.24,6.22 0,3.45 2.77,6.22 6.25,6.22z"/>
<path fill="#FEFEFE" d="M789.1 486.28c3.42,0 6.19,-2.8 6.19,-6.22 0,-3.45 -2.77,-6.24 -6.19,-6.24 -3.43,0 -6.25,2.79 -6.25,6.24 0,3.42 2.82,6.22 6.25,6.22z"/>
<path fill="#FEFEFE" d="M806.67 486.28c3.42,0 6.19,-2.8 6.19,-6.22 0,-3.45 -2.77,-6.24 -6.19,-6.24 -3.43,0 -6.19,2.79 -6.19,6.24 0,3.42 2.76,6.22 6.19,6.22z"/>
<path fill="#FEFEFE" d="M912.26 486.28c3.42,0 6.24,-2.8 6.24,-6.22 0,-3.45 -2.82,-6.24 -6.24,-6.24 -3.42,0 -6.19,2.79 -6.19,6.24 0,3.42 2.77,6.22 6.19,6.22z"/>
<path fill="#FEFEFE" d="M929.88 486.28c3.43,0 6.2,-2.8 6.2,-6.22 0,-3.45 -2.78,-6.24 -6.2,-6.24 -3.42,0 -6.24,2.79 -6.24,6.24 0,3.42 2.82,6.22 6.24,6.22z"/>
<path fill="#FEFEFE" d="M982.65 486.28c3.48,0 6.25,-2.8 6.25,-6.22 0,-3.45 -2.77,-6.24 -6.25,-6.24 -3.42,0 -6.19,2.79 -6.19,6.24 0,3.42 2.77,6.22 6.19,6.22z"/>
<path fill="#FEFEFE" d="M1000.27 486.28c3.43,0 6.2,-2.8 6.2,-6.22 0,-3.45 -2.77,-6.24 -6.2,-6.24 -3.42,0 -6.18,2.79 -6.18,6.24 0,3.42 2.76,6.22 6.18,6.22z"/>
<path fill="#FEFEFE" d="M1017.85 486.28c3.42,0 6.24,-2.8 6.24,-6.22 0,-3.45 -2.82,-6.24 -6.24,-6.24 -3.43,0 -6.2,2.79 -6.2,6.24 0,3.42 2.77,6.22 6.2,6.22z"/>
<path fill="#FEFEFE" d="M1035.47 486.28c3.43,0 6.19,-2.8 6.19,-6.22 0,-3.45 -2.76,-6.24 -6.19,-6.24 -3.43,0 -6.19,2.79 -6.19,6.24 0,3.42 2.76,6.22 6.19,6.22z"/>
<path fill="#FEFEFE" d="M1053.09 486.28c3.43,0 6.2,-2.8 6.2,-6.22 0,-3.45 -2.77,-6.24 -6.2,-6.24 -3.42,0 -6.24,2.79 -6.24,6.24 0,3.42 2.82,6.22 6.24,6.22z"/>
<path fill="#FEFEFE" d="M1070.67 486.28c3.42,0 6.19,-2.8 6.19,-6.22 0,-3.45 -2.77,-6.24 -6.19,-6.24 -3.42,0 -6.25,2.79 -6.25,6.24 0,3.42 2.83,6.22 6.25,6.22z"/>
<path fill="#FEFEFE" d="M1088.3 486.28c3.41,0 6.19,-2.8 6.19,-6.22 0,-3.45 -2.78,-6.24 -6.2,-6.24 -3.47,0 -6.24,2.79 -6.24,6.24 0,3.42 2.77,6.22 6.25,6.22z"/>
<path fill="#FEFEFE" d="M753.85 502.14c3.48,0 6.24,-2.8 6.24,-6.22 0,-3.45 -2.76,-6.24 -6.24,-6.24 -3.42,0 -6.19,2.79 -6.19,6.24 0,3.42 2.77,6.22 6.19,6.22z"/>
<path fill="#FEFEFE" d="M771.47 502.14c3.43,0 6.2,-2.8 6.2,-6.22 0,-3.45 -2.77,-6.24 -6.2,-6.24 -3.42,0 -6.19,2.79 -6.19,6.24 0,3.42 2.77,6.22 6.19,6.22z"/>
<path fill="#FEFEFE" d="M806.67 502.14c3.42,0 6.19,-2.8 6.19,-6.22 0,-3.45 -2.77,-6.24 -6.19,-6.24 -3.43,0 -6.19,2.79 -6.19,6.24 0,3.42 2.76,6.22 6.19,6.22z"/>
<path fill="#FEFEFE" d="M877.07 502.14c3.42,0 6.24,-2.8 6.24,-6.22 0,-3.45 -2.82,-6.24 -6.24,-6.24 -3.43,0 -6.2,2.79 -6.2,6.24 0,3.42 2.77,6.22 6.2,6.22z"/>
<path fill="#FEFEFE" d="M912.26 502.14c3.42,0 6.24,-2.8 6.24,-6.22 0,-3.45 -2.82,-6.24 -6.24,-6.24 -3.42,0 -6.19,2.79 -6.19,6.24 0,3.42 2.77,6.22 6.19,6.22z"/>
<path fill="#FEFEFE" d="M929.88 502.14c3.43,0 6.2,-2.8 6.2,-6.22 0,-3.45 -2.78,-6.24 -6.2,-6.24 -3.42,0 -6.24,2.79 -6.24,6.24 0,3.42 2.82,6.22 6.24,6.22z"/>
<path fill="#FEFEFE" d="M982.65 502.14c3.48,0 6.25,-2.8 6.25,-6.22 0,-3.45 -2.77,-6.24 -6.25,-6.24 -3.42,0 -6.19,2.79 -6.19,6.24 0,3.42 2.77,6.22 6.19,6.22z"/>
<path fill="#FEFEFE" d="M1000.27 502.14c3.43,0 6.2,-2.8 6.2,-6.22 0,-3.45 -2.77,-6.24 -6.2,-6.24 -3.42,0 -6.18,2.79 -6.18,6.24 0,3.42 2.76,6.22 6.18,6.22z"/>
<path fill="#FEFEFE" d="M1017.85 502.14c3.42,0 6.24,-2.8 6.24,-6.22 0,-3.45 -2.82,-6.24 -6.24,-6.24 -3.43,0 -6.2,2.79 -6.2,6.24 0,3.42 2.77,6.22 6.2,6.22z"/>
<path fill="#FEFEFE" d="M1035.47 502.14c3.43,0 6.19,-2.8 6.19,-6.22 0,-3.45 -2.76,-6.24 -6.19,-6.24 -3.43,0 -6.19,2.79 -6.19,6.24 0,3.42 2.76,6.22 6.19,6.22z"/>
<path fill="#FEFEFE" d="M1053.09 502.14c3.43,0 6.2,-2.8 6.2,-6.22 0,-3.45 -2.77,-6.24 -6.2,-6.24 -3.42,0 -6.24,2.79 -6.24,6.24 0,3.42 2.82,6.22 6.24,6.22z"/>
<path fill="#FEFEFE" d="M1070.67 502.14c3.42,0 6.19,-2.8 6.19,-6.22 0,-3.45 -2.77,-6.24 -6.19,-6.24 -3.42,0 -6.25,2.79 -6.25,6.24 0,3.42 2.83,6.22 6.25,6.22z"/>
<path fill="#FEFEFE" d="M1088.3 502.14c3.41,0 6.19,-2.8 6.19,-6.22 0,-3.45 -2.78,-6.24 -6.2,-6.24 -3.47,0 -6.24,2.79 -6.24,6.24 0,3.42 2.77,6.22 6.25,6.22z"/>
<path fill="#FEFEFE" d="M753.85 517.98c3.48,0 6.24,-2.8 6.24,-6.22 0,-3.45 -2.76,-6.25 -6.24,-6.25 -3.42,0 -6.19,2.8 -6.19,6.25 0,3.42 2.77,6.22 6.19,6.22z"/>
<path fill="#FEFEFE" d="M771.47 517.98c3.43,0 6.2,-2.8 6.2,-6.22 0,-3.45 -2.77,-6.25 -6.2,-6.25 -3.42,0 -6.19,2.8 -6.19,6.25 0,3.42 2.77,6.22 6.19,6.22z"/>
<path fill="#FEFEFE" d="M789.1 517.98c3.42,0 6.19,-2.8 6.19,-6.22 0,-3.45 -2.77,-6.25 -6.19,-6.25 -3.43,0 -6.25,2.8 -6.25,6.25 0,3.42 2.82,6.22 6.25,6.22z"/>
<path fill="#FEFEFE" d="M806.67 517.98c3.42,0 6.19,-2.8 6.19,-6.22 0,-3.45 -2.77,-6.25 -6.19,-6.25 -3.43,0 -6.19,2.8 -6.19,6.25 0,3.42 2.76,6.22 6.19,6.22z"/>
<path fill="#FEFEFE" d="M877.07 517.98c3.42,0 6.24,-2.8 6.24,-6.22 0,-3.45 -2.82,-6.25 -6.24,-6.25 -3.43,0 -6.2,2.8 -6.2,6.25 0,3.42 2.77,6.22 6.2,6.22z"/>
<path fill="#FEFEFE" d="M982.65 517.98c3.48,0 6.25,-2.8 6.25,-6.22 0,-3.45 -2.77,-6.25 -6.25,-6.25 -3.42,0 -6.19,2.8 -6.19,6.25 0,3.42 2.77,6.22 6.19,6.22z"/>
<path fill="#FEFEFE" d="M1000.27 517.98c3.43,0 6.2,-2.8 6.2,-6.22 0,-3.45 -2.77,-6.25 -6.2,-6.25 -3.42,0 -6.18,2.8 -6.18,6.25 0,3.42 2.76,6.22 6.18,6.22z"/>
<path fill="#FEFEFE" d="M1017.85 517.98c3.42,0 6.24,-2.8 6.24,-6.22 0,-3.45 -2.82,-6.25 -6.24,-6.25 -3.43,0 -6.2,2.8 -6.2,6.25 0,3.42 2.77,6.22 6.2,6.22z"/>
<path fill="#FEFEFE" d="M1035.47 517.98c3.43,0 6.19,-2.8 6.19,-6.22 0,-3.45 -2.76,-6.25 -6.19,-6.25 -3.43,0 -6.19,2.8 -6.19,6.25 0,3.42 2.76,6.22 6.19,6.22z"/>
<path fill="#FEFEFE" d="M1053.09 517.98c3.43,0 6.2,-2.8 6.2,-6.22 0,-3.45 -2.77,-6.25 -6.2,-6.25 -3.42,0 -6.24,2.8 -6.24,6.25 0,3.42 2.82,6.22 6.24,6.22z"/>
<path fill="#FEFEFE" d="M1070.67 517.98c3.42,0 6.19,-2.8 6.19,-6.22 0,-3.45 -2.77,-6.25 -6.19,-6.25 -3.42,0 -6.25,2.8 -6.25,6.25 0,3.42 2.83,6.22 6.25,6.22z"/>
<path fill="#FEFEFE" d="M1088.3 517.98c3.41,0 6.19,-2.8 6.19,-6.22 0,-3.45 -2.78,-6.25 -6.2,-6.25 -3.47,0 -6.24,2.8 -6.24,6.25 0,3.42 2.77,6.22 6.25,6.22z"/>
<path fill="#FEFEFE" d="M736.28 533.81c3.42,0 6.24,-2.77 6.24,-6.22 0,-3.45 -2.82,-6.22 -6.25,-6.22 -3.42,0 -6.19,2.77 -6.19,6.22 0,3.45 2.77,6.22 6.2,6.22z"/>
<path fill="#FEFEFE" d="M753.85 533.81c3.48,0 6.24,-2.77 6.24,-6.22 0,-3.45 -2.76,-6.22 -6.24,-6.22 -3.42,0 -6.19,2.77 -6.19,6.22 0,3.45 2.77,6.22 6.19,6.22z"/>
<path fill="#FEFEFE" d="M789.1 533.81c3.42,0 6.19,-2.77 6.19,-6.22 0,-3.45 -2.77,-6.22 -6.19,-6.22 -3.43,0 -6.25,2.77 -6.25,6.22 0,3.45 2.82,6.22 6.25,6.22z"/>
<path fill="#FEFEFE" d="M806.67 533.81c3.42,0 6.19,-2.77 6.19,-6.22 0,-3.45 -2.77,-6.22 -6.19,-6.22 -3.43,0 -6.19,2.77 -6.19,6.22 0,3.45 2.76,6.22 6.19,6.22z"/>
<path fill="#FEFEFE" d="M824.29 533.81c3.43,0 6.2,-2.77 6.2,-6.22 0,-3.45 -2.77,-6.22 -6.2,-6.22 -3.42,0 -6.24,2.77 -6.24,6.22 0,3.45 2.82,6.22 6.24,6.22z"/>
<path fill="#FEFEFE" d="M859.49 533.81c3.42,0 6.2,-2.77 6.2,-6.22 0,-3.45 -2.78,-6.22 -6.2,-6.22 -3.47,0 -6.24,2.77 -6.24,6.22 0,3.45 2.76,6.22 6.24,6.22z"/>
<path fill="#FEFEFE" d="M877.07 533.81c3.42,0 6.24,-2.77 6.24,-6.22 0,-3.45 -2.82,-6.22 -6.24,-6.22 -3.43,0 -6.2,2.77 -6.2,6.22 0,3.45 2.77,6.22 6.2,6.22z"/>
<path fill="#FEFEFE" d="M894.68 533.81c3.43,0 6.2,-2.77 6.2,-6.22 0,-3.45 -2.77,-6.22 -6.2,-6.22 -3.42,0 -6.19,2.77 -6.19,6.22 0,3.45 2.77,6.22 6.19,6.22z"/>
<path fill="#FEFEFE" d="M912.26 533.81c3.42,0 6.24,-2.77 6.24,-6.22 0,-3.45 -2.82,-6.22 -6.24,-6.22 -3.42,0 -6.19,2.77 -6.19,6.22 0,3.45 2.77,6.22 6.19,6.22z"/>
<path fill="#FEFEFE" d="M929.88 533.81c3.43,0 6.2,-2.77 6.2,-6.22 0,-3.45 -2.78,-6.22 -6.2,-6.22 -3.42,0 -6.24,2.77 -6.24,6.22 0,3.45 2.82,6.22 6.24,6.22z"/>
<path fill="#FEFEFE" d="M947.51 533.81c3.42,0 6.19,-2.77 6.19,-6.22 0,-3.45 -2.77,-6.22 -6.19,-6.22 -3.48,0 -6.25,2.77 -6.25,6.22 0,3.45 2.77,6.22 6.25,6.22z"/>
<path fill="#FEFEFE" d="M965.08 533.81c3.42,0 6.19,-2.77 6.19,-6.22 0,-3.45 -2.77,-6.22 -6.19,-6.22 -3.42,0 -6.25,2.77 -6.25,6.22 0,3.45 2.83,6.22 6.25,6.22z"/>
<path fill="#FEFEFE" d="M982.65 533.81c3.48,0 6.25,-2.77 6.25,-6.22 0,-3.45 -2.77,-6.22 -6.25,-6.22 -3.42,0 -6.19,2.77 -6.19,6.22 0,3.45 2.77,6.22 6.19,6.22z"/>
<path fill="#FEFEFE" d="M1000.27 533.81c3.43,0 6.2,-2.77 6.2,-6.22 0,-3.45 -2.77,-6.22 -6.2,-6.22 -3.42,0 -6.18,2.77 -6.18,6.22 0,3.45 2.76,6.22 6.18,6.22z"/>
<path fill="#FEFEFE" d="M1017.85 533.81c3.42,0 6.24,-2.77 6.24,-6.22 0,-3.45 -2.82,-6.22 -6.24,-6.22 -3.43,0 -6.2,2.77 -6.2,6.22 0,3.45 2.77,6.22 6.2,6.22z"/>
<path fill="#FEFEFE" d="M1035.47 533.81c3.43,0 6.19,-2.77 6.19,-6.22 0,-3.45 -2.76,-6.22 -6.19,-6.22 -3.43,0 -6.19,2.77 -6.19,6.22 0,3.45 2.76,6.22 6.19,6.22z"/>
<path fill="#FEFEFE" d="M1053.09 533.81c3.43,0 6.2,-2.77 6.2,-6.22 0,-3.45 -2.77,-6.22 -6.2,-6.22 -3.42,0 -6.24,2.77 -6.24,6.22 0,3.45 2.82,6.22 6.24,6.22z"/>
<path fill="#FEFEFE" d="M1070.67 533.81c3.42,0 6.19,-2.77 6.19,-6.22 0,-3.45 -2.77,-6.22 -6.19,-6.22 -3.42,0 -6.25,2.77 -6.25,6.22 0,3.45 2.83,6.22 6.25,6.22z"/>
<path fill="#FEFEFE" d="M1088.3 533.81c3.41,0 6.19,-2.77 6.19,-6.22 0,-3.45 -2.78,-6.22 -6.2,-6.22 -3.47,0 -6.24,2.77 -6.24,6.22 0,3.45 2.77,6.22 6.25,6.22z"/>
<path fill="#FEFEFE" d="M771.47 549.65c3.43,0 6.2,-2.8 6.2,-6.22 0,-3.45 -2.77,-6.24 -6.2,-6.24 -3.42,0 -6.19,2.79 -6.19,6.24 0,3.42 2.77,6.22 6.19,6.22z"/>
<path fill="#FEFEFE" d="M789.1 549.65c3.42,0 6.19,-2.8 6.19,-6.22 0,-3.45 -2.77,-6.24 -6.19,-6.24 -3.43,0 -6.25,2.79 -6.25,6.24 0,3.42 2.82,6.22 6.25,6.22z"/>
<path fill="#FEFEFE" d="M806.67 549.65c3.42,0 6.19,-2.8 6.19,-6.22 0,-3.45 -2.77,-6.24 -6.19,-6.24 -3.43,0 -6.19,2.79 -6.19,6.24 0,3.42 2.76,6.22 6.19,6.22z"/>
<path fill="#FEFEFE" d="M824.29 549.65c3.43,0 6.2,-2.8 6.2,-6.22 0,-3.45 -2.77,-6.24 -6.2,-6.24 -3.42,0 -6.24,2.79 -6.24,6.24 0,3.42 2.82,6.22 6.24,6.22z"/>
<path fill="#FEFEFE" d="M859.49 549.65c3.42,0 6.2,-2.8 6.2,-6.22 0,-3.45 -2.78,-6.24 -6.2,-6.24 -3.47,0 -6.24,2.79 -6.24,6.24 0,3.42 2.76,6.22 6.24,6.22z"/>
<path fill="#FEFEFE" d="M877.07 549.65c3.42,0 6.24,-2.8 6.24,-6.22 0,-3.45 -2.82,-6.24 -6.24,-6.24 -3.43,0 -6.2,2.79 -6.2,6.24 0,3.42 2.77,6.22 6.2,6.22z"/>
<path fill="#FEFEFE" d="M894.68 549.65c3.43,0 6.2,-2.8 6.2,-6.22 0,-3.45 -2.77,-6.24 -6.2,-6.24 -3.42,0 -6.19,2.79 -6.19,6.24 0,3.42 2.77,6.22 6.19,6.22z"/>
<path fill="#FEFEFE" d="M912.26 549.65c3.42,0 6.24,-2.8 6.24,-6.22 0,-3.45 -2.82,-6.24 -6.24,-6.24 -3.42,0 -6.19,2.79 -6.19,6.24 0,3.42 2.77,6.22 6.19,6.22z"/>
<path fill="#FEFEFE" d="M929.88 549.65c3.43,0 6.2,-2.8 6.2,-6.22 0,-3.45 -2.78,-6.24 -6.2,-6.24 -3.42,0 -6.24,2.79 -6.24,6.24 0,3.42 2.82,6.22 6.24,6.22z"/>
<path fill="#FEFEFE" d="M947.51 549.65c3.42,0 6.19,-2.8 6.19,-6.22 0,-3.45 -2.77,-6.24 -6.19,-6.24 -3.48,0 -6.25,2.79 -6.25,6.24 0,3.42 2.77,6.22 6.25,6.22z"/>
<path fill="#FEFEFE" d="M965.08 549.65c3.42,0 6.19,-2.8 6.19,-6.22 0,-3.45 -2.77,-6.24 -6.19,-6.24 -3.42,0 -6.25,2.79 -6.25,6.24 0,3.42 2.83,6.22 6.25,6.22z"/>
<path fill="#FEFEFE" d="M982.65 549.65c3.48,0 6.25,-2.8 6.25,-6.22 0,-3.45 -2.77,-6.24 -6.25,-6.24 -3.42,0 -6.19,2.79 -6.19,6.24 0,3.42 2.77,6.22 6.19,6.22z"/>
<path fill="#FEFEFE" d="M1000.27 549.65c3.43,0 6.2,-2.8 6.2,-6.22 0,-3.45 -2.77,-6.24 -6.2,-6.24 -3.42,0 -6.18,2.79 -6.18,6.24 0,3.42 2.76,6.22 6.18,6.22z"/>
<path fill="#FEFEFE" d="M1017.85 549.65c3.42,0 6.24,-2.8 6.24,-6.22 0,-3.45 -2.82,-6.24 -6.24,-6.24 -3.43,0 -6.2,2.79 -6.2,6.24 0,3.42 2.77,6.22 6.2,6.22z"/>
<path fill="#FEFEFE" d="M1035.47 549.65c3.43,0 6.19,-2.8 6.19,-6.22 0,-3.45 -2.76,-6.24 -6.19,-6.24 -3.43,0 -6.19,2.79 -6.19,6.24 0,3.42 2.76,6.22 6.19,6.22z"/>
<path fill="#FEFEFE" d="M1053.09 549.65c3.43,0 6.2,-2.8 6.2,-6.22 0,-3.45 -2.77,-6.24 -6.2,-6.24 -3.42,0 -6.24,2.79 -6.24,6.24 0,3.42 2.82,6.22 6.24,6.22z"/>
<path fill="#FEFEFE" d="M1070.67 549.65c3.42,0 6.19,-2.8 6.19,-6.22 0,-3.45 -2.77,-6.24 -6.19,-6.24 -3.42,0 -6.25,2.79 -6.25,6.24 0,3.42 2.83,6.22 6.25,6.22z"/>
<path fill="#FEFEFE" d="M1088.3 549.65c3.41,0 6.19,-2.8 6.19,-6.22 0,-3.45 -2.78,-6.24 -6.2,-6.24 -3.47,0 -6.24,2.79 -6.24,6.24 0,3.42 2.77,6.22 6.25,6.22z"/>
<path fill="#FEFEFE" d="M841.87 565.48c3.42,0 6.24,-2.79 6.24,-6.22 0,-3.45 -2.82,-6.24 -6.25,-6.24 -3.42,0 -6.19,2.79 -6.19,6.24 0,3.43 2.77,6.22 6.2,6.22z"/>
<path fill="#FEFEFE" d="M859.49 565.48c3.42,0 6.2,-2.79 6.2,-6.22 0,-3.45 -2.78,-6.24 -6.2,-6.24 -3.47,0 -6.24,2.79 -6.24,6.24 0,3.43 2.76,6.22 6.24,6.22z"/>
<path fill="#FEFEFE" d="M877.07 565.48c3.42,0 6.24,-2.79 6.24,-6.22 0,-3.45 -2.82,-6.24 -6.24,-6.24 -3.43,0 -6.2,2.79 -6.2,6.24 0,3.43 2.77,6.22 6.2,6.22z"/>
<path fill="#FEFEFE" d="M894.68 565.48c3.43,0 6.2,-2.79 6.2,-6.22 0,-3.45 -2.77,-6.24 -6.2,-6.24 -3.42,0 -6.19,2.79 -6.19,6.24 0,3.43 2.77,6.22 6.19,6.22z"/>
<path fill="#FEFEFE" d="M912.26 565.48c3.42,0 6.24,-2.79 6.24,-6.22 0,-3.45 -2.82,-6.24 -6.24,-6.24 -3.42,0 -6.19,2.79 -6.19,6.24 0,3.43 2.77,6.22 6.19,6.22z"/>
<path fill="#FEFEFE" d="M929.88 565.48c3.43,0 6.2,-2.79 6.2,-6.22 0,-3.45 -2.78,-6.24 -6.2,-6.24 -3.42,0 -6.24,2.79 -6.24,6.24 0,3.43 2.82,6.22 6.24,6.22z"/>
<path fill="#FEFEFE" d="M947.51 565.48c3.42,0 6.19,-2.79 6.19,-6.22 0,-3.45 -2.77,-6.24 -6.19,-6.24 -3.48,0 -6.25,2.79 -6.25,6.24 0,3.43 2.77,6.22 6.25,6.22z"/>
<path fill="#FEFEFE" d="M965.08 565.48c3.42,0 6.19,-2.79 6.19,-6.22 0,-3.45 -2.77,-6.24 -6.19,-6.24 -3.42,0 -6.25,2.79 -6.25,6.24 0,3.43 2.83,6.22 6.25,6.22z"/>
<path fill="#FEFEFE" d="M982.65 565.48c3.48,0 6.25,-2.79 6.25,-6.22 0,-3.45 -2.77,-6.24 -6.25,-6.24 -3.42,0 -6.19,2.79 -6.19,6.24 0,3.43 2.77,6.22 6.19,6.22z"/>
<path fill="#FEFEFE" d="M1000.27 565.48c3.43,0 6.2,-2.79 6.2,-6.22 0,-3.45 -2.77,-6.24 -6.2,-6.24 -3.42,0 -6.18,2.79 -6.18,6.24 0,3.43 2.76,6.22 6.18,6.22z"/>
<path fill="#FEFEFE" d="M1017.85 565.48c3.42,0 6.24,-2.79 6.24,-6.22 0,-3.45 -2.82,-6.24 -6.24,-6.24 -3.43,0 -6.2,2.79 -6.2,6.24 0,3.43 2.77,6.22 6.2,6.22z"/>
<path fill="#FEFEFE" d="M1035.47 565.48c3.43,0 6.19,-2.79 6.19,-6.22 0,-3.45 -2.76,-6.24 -6.19,-6.24 -3.43,0 -6.19,2.79 -6.19,6.24 0,3.43 2.76,6.22 6.19,6.22z"/>
<path fill="#FEFEFE" d="M1053.09 565.48c3.43,0 6.2,-2.79 6.2,-6.22 0,-3.45 -2.77,-6.24 -6.2,-6.24 -3.42,0 -6.24,2.79 -6.24,6.24 0,3.43 2.82,6.22 6.24,6.22z"/>
<path fill="#FEFEFE" d="M1070.67 565.48c3.42,0 6.19,-2.79 6.19,-6.22 0,-3.45 -2.77,-6.24 -6.19,-6.24 -3.42,0 -6.25,2.79 -6.25,6.24 0,3.43 2.83,6.22 6.25,6.22z"/>
<path fill="#FEFEFE" d="M1088.3 565.48c3.41,0 6.19,-2.79 6.19,-6.22 0,-3.45 -2.78,-6.24 -6.2,-6.24 -3.47,0 -6.24,2.79 -6.24,6.24 0,3.43 2.77,6.22 6.25,6.22z"/>
<path fill="#FEFEFE" d="M771.47 581.32c3.43,0 6.2,-2.77 6.2,-6.2 0,-3.47 -2.77,-6.24 -6.2,-6.24 -3.42,0 -6.19,2.77 -6.19,6.24 0,3.43 2.77,6.2 6.19,6.2z"/>
<path fill="#FEFEFE" d="M789.1 581.32c3.42,0 6.19,-2.77 6.19,-6.2 0,-3.47 -2.77,-6.24 -6.19,-6.24 -3.43,0 -6.25,2.77 -6.25,6.24 0,3.43 2.82,6.2 6.25,6.2z"/>
<path fill="#FEFEFE" d="M806.67 581.32c3.42,0 6.19,-2.77 6.19,-6.2 0,-3.47 -2.77,-6.24 -6.19,-6.24 -3.43,0 -6.19,2.77 -6.19,6.24 0,3.43 2.76,6.2 6.19,6.2z"/>
<path fill="#FEFEFE" d="M824.29 581.32c3.43,0 6.2,-2.77 6.2,-6.2 0,-3.47 -2.77,-6.24 -6.2,-6.24 -3.42,0 -6.24,2.77 -6.24,6.24 0,3.43 2.82,6.2 6.24,6.2z"/>
<path fill="#FEFEFE" d="M841.87 581.32c3.42,0 6.24,-2.77 6.24,-6.2 0,-3.47 -2.82,-6.24 -6.25,-6.24 -3.42,0 -6.19,2.77 -6.19,6.24 0,3.43 2.77,6.2 6.2,6.2z"/>
<path fill="#FEFEFE" d="M859.49 581.32c3.42,0 6.2,-2.77 6.2,-6.2 0,-3.47 -2.78,-6.24 -6.2,-6.24 -3.47,0 -6.24,2.77 -6.24,6.24 0,3.43 2.76,6.2 6.24,6.2z"/>
<path fill="#FEFEFE" d="M877.07 581.32c3.42,0 6.24,-2.77 6.24,-6.2 0,-3.47 -2.82,-6.24 -6.24,-6.24 -3.43,0 -6.2,2.77 -6.2,6.24 0,3.43 2.77,6.2 6.2,6.2z"/>
<path fill="#FEFEFE" d="M894.68 581.32c3.43,0 6.2,-2.77 6.2,-6.2 0,-3.47 -2.77,-6.24 -6.2,-6.24 -3.42,0 -6.19,2.77 -6.19,6.24 0,3.43 2.77,6.2 6.19,6.2z"/>
<path fill="#FEFEFE" d="M912.26 581.32c3.42,0 6.24,-2.77 6.24,-6.2 0,-3.47 -2.82,-6.24 -6.24,-6.24 -3.42,0 -6.19,2.77 -6.19,6.24 0,3.43 2.77,6.2 6.19,6.2z"/>
<path fill="#FEFEFE" d="M929.88 581.32c3.43,0 6.2,-2.77 6.2,-6.2 0,-3.47 -2.78,-6.24 -6.2,-6.24 -3.42,0 -6.24,2.77 -6.24,6.24 0,3.43 2.82,6.2 6.24,6.2z"/>
<path fill="#FEFEFE" d="M947.51 581.32c3.42,0 6.19,-2.77 6.19,-6.2 0,-3.47 -2.77,-6.24 -6.19,-6.24 -3.48,0 -6.25,2.77 -6.25,6.24 0,3.43 2.77,6.2 6.25,6.2z"/>
<path fill="#FEFEFE" d="M965.08 581.32c3.42,0 6.19,-2.77 6.19,-6.2 0,-3.47 -2.77,-6.24 -6.19,-6.24 -3.42,0 -6.25,2.77 -6.25,6.24 0,3.43 2.83,6.2 6.25,6.2z"/>
<path fill="#FEFEFE" d="M982.65 581.32c3.48,0 6.25,-2.77 6.25,-6.2 0,-3.47 -2.77,-6.24 -6.25,-6.24 -3.42,0 -6.19,2.77 -6.19,6.24 0,3.43 2.77,6.2 6.19,6.2z"/>
<path fill="#FEFEFE" d="M1000.27 581.32c3.43,0 6.2,-2.77 6.2,-6.2 0,-3.47 -2.77,-6.24 -6.2,-6.24 -3.42,0 -6.18,2.77 -6.18,6.24 0,3.43 2.76,6.2 6.18,6.2z"/>
<path fill="#FEFEFE" d="M1017.85 581.32c3.42,0 6.24,-2.77 6.24,-6.2 0,-3.47 -2.82,-6.24 -6.24,-6.24 -3.43,0 -6.2,2.77 -6.2,6.24 0,3.43 2.77,6.2 6.2,6.2z"/>
<path fill="#FEFEFE" d="M1035.47 581.32c3.43,0 6.19,-2.77 6.19,-6.2 0,-3.47 -2.76,-6.24 -6.19,-6.24 -3.43,0 -6.19,2.77 -6.19,6.24 0,3.43 2.76,6.2 6.19,6.2z"/>
<path fill="#FEFEFE" d="M1053.09 581.32c3.43,0 6.2,-2.77 6.2,-6.2 0,-3.47 -2.77,-6.24 -6.2,-6.24 -3.42,0 -6.24,2.77 -6.24,6.24 0,3.43 2.82,6.2 6.24,6.2z"/>
<path fill="#FEFEFE" d="M1070.67 581.32c3.42,0 6.19,-2.77 6.19,-6.2 0,-3.47 -2.77,-6.24 -6.19,-6.24 -3.42,0 -6.25,2.77 -6.25,6.24 0,3.43 2.83,6.2 6.25,6.2z"/>
<path fill="#FEFEFE" d="M1088.3 581.32c3.41,0 6.19,-2.77 6.19,-6.2 0,-3.47 -2.78,-6.24 -6.2,-6.24 -3.47,0 -6.24,2.77 -6.24,6.24 0,3.43 2.77,6.2 6.25,6.2z"/>
<path fill="#FEFEFE" d="M789.1 597.16c3.42,0 6.19,-2.78 6.19,-6.22 0,-3.45 -2.77,-6.22 -6.19,-6.22 -3.43,0 -6.25,2.77 -6.25,6.22 0,3.44 2.82,6.22 6.25,6.22z"/>
<path fill="#FEFEFE" d="M806.67 597.16c3.42,0 6.19,-2.78 6.19,-6.22 0,-3.45 -2.77,-6.22 -6.19,-6.22 -3.43,0 -6.19,2.77 -6.19,6.22 0,3.44 2.76,6.22 6.19,6.22z"/>
<path fill="#FEFEFE" d="M824.29 597.16c3.43,0 6.2,-2.78 6.2,-6.22 0,-3.45 -2.77,-6.22 -6.2,-6.22 -3.42,0 -6.24,2.77 -6.24,6.22 0,3.44 2.82,6.22 6.24,6.22z"/>
<path fill="#FEFEFE" d="M841.87 597.16c3.42,0 6.24,-2.78 6.24,-6.22 0,-3.45 -2.82,-6.22 -6.25,-6.22 -3.42,0 -6.19,2.77 -6.19,6.22 0,3.44 2.77,6.22 6.2,6.22z"/>
<path fill="#FEFEFE" d="M859.49 597.16c3.42,0 6.2,-2.78 6.2,-6.22 0,-3.45 -2.78,-6.22 -6.2,-6.22 -3.47,0 -6.24,2.77 -6.24,6.22 0,3.44 2.76,6.22 6.24,6.22z"/>
<path fill="#FEFEFE" d="M877.07 597.16c3.42,0 6.24,-2.78 6.24,-6.22 0,-3.45 -2.82,-6.22 -6.24,-6.22 -3.43,0 -6.2,2.77 -6.2,6.22 0,3.44 2.77,6.22 6.2,6.22z"/>
<path fill="#FEFEFE" d="M894.68 597.16c3.43,0 6.2,-2.78 6.2,-6.22 0,-3.45 -2.77,-6.22 -6.2,-6.22 -3.42,0 -6.19,2.77 -6.19,6.22 0,3.44 2.77,6.22 6.19,6.22z"/>
<path fill="#FEFEFE" d="M912.26 597.16c3.42,0 6.24,-2.78 6.24,-6.22 0,-3.45 -2.82,-6.22 -6.24,-6.22 -3.42,0 -6.19,2.77 -6.19,6.22 0,3.44 2.77,6.22 6.19,6.22z"/>
<path fill="#FEFEFE" d="M929.88 597.16c3.43,0 6.2,-2.78 6.2,-6.22 0,-3.45 -2.78,-6.22 -6.2,-6.22 -3.42,0 -6.24,2.77 -6.24,6.22 0,3.44 2.82,6.22 6.24,6.22z"/>
<path fill="#FEFEFE" d="M947.51 597.16c3.42,0 6.19,-2.78 6.19,-6.22 0,-3.45 -2.77,-6.22 -6.19,-6.22 -3.48,0 -6.25,2.77 -6.25,6.22 0,3.44 2.77,6.22 6.25,6.22z"/>
<path fill="#FEFEFE" d="M965.08 597.16c3.42,0 6.19,-2.78 6.19,-6.22 0,-3.45 -2.77,-6.22 -6.19,-6.22 -3.42,0 -6.25,2.77 -6.25,6.22 0,3.44 2.83,6.22 6.25,6.22z"/>
<path fill="#FEFEFE" d="M982.65 597.16c3.48,0 6.25,-2.78 6.25,-6.22 0,-3.45 -2.77,-6.22 -6.25,-6.22 -3.42,0 -6.19,2.77 -6.19,6.22 0,3.44 2.77,6.22 6.19,6.22z"/>
<path fill="#FEFEFE" d="M1000.27 597.16c3.43,0 6.2,-2.78 6.2,-6.22 0,-3.45 -2.77,-6.22 -6.2,-6.22 -3.42,0 -6.18,2.77 -6.18,6.22 0,3.44 2.76,6.22 6.18,6.22z"/>
<path fill="#FEFEFE" d="M1017.85 597.16c3.42,0 6.24,-2.78 6.24,-6.22 0,-3.45 -2.82,-6.22 -6.24,-6.22 -3.43,0 -6.2,2.77 -6.2,6.22 0,3.44 2.77,6.22 6.2,6.22z"/>
<path fill="#FEFEFE" d="M1035.47 597.16c3.43,0 6.19,-2.78 6.19,-6.22 0,-3.45 -2.76,-6.22 -6.19,-6.22 -3.43,0 -6.19,2.77 -6.19,6.22 0,3.44 2.76,6.22 6.19,6.22z"/>
<path fill="#FEFEFE" d="M1053.09 597.16c3.43,0 6.2,-2.78 6.2,-6.22 0,-3.45 -2.77,-6.22 -6.2,-6.22 -3.42,0 -6.24,2.77 -6.24,6.22 0,3.44 2.82,6.22 6.24,6.22z"/>
<path fill="#FEFEFE" d="M1070.67 597.16c3.42,0 6.19,-2.78 6.19,-6.22 0,-3.45 -2.77,-6.22 -6.19,-6.22 -3.42,0 -6.25,2.77 -6.25,6.22 0,3.44 2.83,6.22 6.25,6.22z"/>
<path fill="#FEFEFE" d="M1088.3 597.16c3.41,0 6.19,-2.78 6.19,-6.22 0,-3.45 -2.78,-6.22 -6.2,-6.22 -3.47,0 -6.24,2.77 -6.24,6.22 0,3.44 2.77,6.22 6.25,6.22z"/>
<path fill="#FEFEFE" d="M789.1 613.01c3.42,0 6.19,-2.79 6.19,-6.22 0,-3.44 -2.77,-6.24 -6.19,-6.24 -3.43,0 -6.25,2.8 -6.25,6.24 0,3.43 2.82,6.22 6.25,6.22z"/>
<path fill="#FEFEFE" d="M806.67 613.01c3.42,0 6.19,-2.79 6.19,-6.22 0,-3.44 -2.77,-6.24 -6.19,-6.24 -3.43,0 -6.19,2.8 -6.19,6.24 0,3.43 2.76,6.22 6.19,6.22z"/>
<path fill="#FEFEFE" d="M824.29 613.01c3.43,0 6.2,-2.79 6.2,-6.22 0,-3.44 -2.77,-6.24 -6.2,-6.24 -3.42,0 -6.24,2.8 -6.24,6.24 0,3.43 2.82,6.22 6.24,6.22z"/>
<path fill="#FEFEFE" d="M841.87 613.01c3.42,0 6.24,-2.79 6.24,-6.22 0,-3.44 -2.82,-6.24 -6.25,-6.24 -3.42,0 -6.19,2.8 -6.19,6.24 0,3.43 2.77,6.22 6.2,6.22z"/>
<path fill="#FEFEFE" d="M859.49 613.01c3.42,0 6.2,-2.79 6.2,-6.22 0,-3.44 -2.78,-6.24 -6.2,-6.24 -3.47,0 -6.24,2.8 -6.24,6.24 0,3.43 2.76,6.22 6.24,6.22z"/>
<path fill="#FEFEFE" d="M877.07 613.01c3.42,0 6.24,-2.79 6.24,-6.22 0,-3.44 -2.82,-6.24 -6.24,-6.24 -3.43,0 -6.2,2.8 -6.2,6.24 0,3.43 2.77,6.22 6.2,6.22z"/>
<path fill="#FEFEFE" d="M894.68 613.01c3.43,0 6.2,-2.79 6.2,-6.22 0,-3.44 -2.77,-6.24 -6.2,-6.24 -3.42,0 -6.19,2.8 -6.19,6.24 0,3.43 2.77,6.22 6.19,6.22z"/>
<path fill="#FEFEFE" d="M912.26 613.01c3.42,0 6.24,-2.79 6.24,-6.22 0,-3.44 -2.82,-6.24 -6.24,-6.24 -3.42,0 -6.19,2.8 -6.19,6.24 0,3.43 2.77,6.22 6.19,6.22z"/>
<path fill="#FEFEFE" d="M929.88 613.01c3.43,0 6.2,-2.79 6.2,-6.22 0,-3.44 -2.78,-6.24 -6.2,-6.24 -3.42,0 -6.24,2.8 -6.24,6.24 0,3.43 2.82,6.22 6.24,6.22z"/>
<path fill="#FEFEFE" d="M947.51 613.01c3.42,0 6.19,-2.79 6.19,-6.22 0,-3.44 -2.77,-6.24 -6.19,-6.24 -3.48,0 -6.25,2.8 -6.25,6.24 0,3.43 2.77,6.22 6.25,6.22z"/>
<path fill="#FEFEFE" d="M965.08 613.01c3.42,0 6.19,-2.79 6.19,-6.22 0,-3.44 -2.77,-6.24 -6.19,-6.24 -3.42,0 -6.25,2.8 -6.25,6.24 0,3.43 2.83,6.22 6.25,6.22z"/>
<path fill="#FEFEFE" d="M982.65 613.01c3.48,0 6.25,-2.79 6.25,-6.22 0,-3.44 -2.77,-6.24 -6.25,-6.24 -3.42,0 -6.19,2.8 -6.19,6.24 0,3.43 2.77,6.22 6.19,6.22z"/>
<path fill="#FEFEFE" d="M1000.27 613.01c3.43,0 6.2,-2.79 6.2,-6.22 0,-3.44 -2.77,-6.24 -6.2,-6.24 -3.42,0 -6.18,2.8 -6.18,6.24 0,3.43 2.76,6.22 6.18,6.22z"/>
<path fill="#FEFEFE" d="M1017.85 613.01c3.42,0 6.24,-2.79 6.24,-6.22 0,-3.44 -2.82,-6.24 -6.24,-6.24 -3.43,0 -6.2,2.8 -6.2,6.24 0,3.43 2.77,6.22 6.2,6.22z"/>
<path fill="#FEFEFE" d="M1035.47 613.01c3.43,0 6.19,-2.79 6.19,-6.22 0,-3.44 -2.76,-6.24 -6.19,-6.24 -3.43,0 -6.19,2.8 -6.19,6.24 0,3.43 2.76,6.22 6.19,6.22z"/>
<path fill="#FEFEFE" d="M1053.09 613.01c3.43,0 6.2,-2.79 6.2,-6.22 0,-3.44 -2.77,-6.24 -6.2,-6.24 -3.42,0 -6.24,2.8 -6.24,6.24 0,3.43 2.82,6.22 6.24,6.22z"/>
<path fill="#FEFEFE" d="M1070.67 613.01c3.42,0 6.19,-2.79 6.19,-6.22 0,-3.44 -2.77,-6.24 -6.19,-6.24 -3.42,0 -6.25,2.8 -6.25,6.24 0,3.43 2.83,6.22 6.25,6.22z"/>
<path fill="#FEFEFE" d="M1088.3 613.01c3.41,0 6.19,-2.79 6.19,-6.22 0,-3.44 -2.78,-6.24 -6.2,-6.24 -3.47,0 -6.24,2.8 -6.24,6.24 0,3.43 2.77,6.22 6.25,6.22z"/>
<path fill="#FEFEFE" d="M718.7 628.85c3.43,0 6.2,-2.79 6.2,-6.22 0,-3.45 -2.77,-6.24 -6.2,-6.24 -3.47,0 -6.24,2.79 -6.24,6.24 0,3.43 2.77,6.22 6.24,6.22z"/>
<path fill="#FEFEFE" d="M736.28 628.85c3.42,0 6.24,-2.79 6.24,-6.22 0,-3.45 -2.82,-6.24 -6.25,-6.24 -3.42,0 -6.19,2.79 -6.19,6.24 0,3.43 2.77,6.22 6.2,6.22z"/>
<path fill="#FEFEFE" d="M789.1 628.85c3.42,0 6.19,-2.79 6.19,-6.22 0,-3.45 -2.77,-6.24 -6.19,-6.24 -3.43,0 -6.25,2.79 -6.25,6.24 0,3.43 2.82,6.22 6.25,6.22z"/>
<path fill="#FEFEFE" d="M806.67 628.85c3.42,0 6.19,-2.79 6.19,-6.22 0,-3.45 -2.77,-6.24 -6.19,-6.24 -3.43,0 -6.19,2.79 -6.19,6.24 0,3.43 2.76,6.22 6.19,6.22z"/>
<path fill="#FEFEFE" d="M824.29 628.85c3.43,0 6.2,-2.79 6.2,-6.22 0,-3.45 -2.77,-6.24 -6.2,-6.24 -3.42,0 -6.24,2.79 -6.24,6.24 0,3.43 2.82,6.22 6.24,6.22z"/>
<path fill="#FEFEFE" d="M841.87 628.85c3.42,0 6.24,-2.79 6.24,-6.22 0,-3.45 -2.82,-6.24 -6.25,-6.24 -3.42,0 -6.19,2.79 -6.19,6.24 0,3.43 2.77,6.22 6.2,6.22z"/>
<path fill="#FEFEFE" d="M859.49 628.85c3.42,0 6.2,-2.79 6.2,-6.22 0,-3.45 -2.78,-6.24 -6.2,-6.24 -3.47,0 -6.24,2.79 -6.24,6.24 0,3.43 2.76,6.22 6.24,6.22z"/>
<path fill="#FEFEFE" d="M877.07 628.85c3.42,0 6.24,-2.79 6.24,-6.22 0,-3.45 -2.82,-6.24 -6.24,-6.24 -3.43,0 -6.2,2.79 -6.2,6.24 0,3.43 2.77,6.22 6.2,6.22z"/>
<path fill="#FEFEFE" d="M894.68 628.85c3.43,0 6.2,-2.79 6.2,-6.22 0,-3.45 -2.77,-6.24 -6.2,-6.24 -3.42,0 -6.19,2.79 -6.19,6.24 0,3.43 2.77,6.22 6.19,6.22z"/>
<path fill="#FEFEFE" d="M912.26 628.85c3.42,0 6.24,-2.79 6.24,-6.22 0,-3.45 -2.82,-6.24 -6.24,-6.24 -3.42,0 -6.19,2.79 -6.19,6.24 0,3.43 2.77,6.22 6.19,6.22z"/>
<path fill="#FEFEFE" d="M929.88 628.85c3.43,0 6.2,-2.79 6.2,-6.22 0,-3.45 -2.78,-6.24 -6.2,-6.24 -3.42,0 -6.24,2.79 -6.24,6.24 0,3.43 2.82,6.22 6.24,6.22z"/>
<path fill="#FEFEFE" d="M947.51 628.85c3.42,0 6.19,-2.79 6.19,-6.22 0,-3.45 -2.77,-6.24 -6.19,-6.24 -3.48,0 -6.25,2.79 -6.25,6.24 0,3.43 2.77,6.22 6.25,6.22z"/>
<path fill="#FEFEFE" d="M965.08 628.85c3.42,0 6.19,-2.79 6.19,-6.22 0,-3.45 -2.77,-6.24 -6.19,-6.24 -3.42,0 -6.25,2.79 -6.25,6.24 0,3.43 2.83,6.22 6.25,6.22z"/>
<path fill="#FEFEFE" d="M982.65 628.85c3.48,0 6.25,-2.79 6.25,-6.22 0,-3.45 -2.77,-6.24 -6.25,-6.24 -3.42,0 -6.19,2.79 -6.19,6.24 0,3.43 2.77,6.22 6.19,6.22z"/>
<path fill="#FEFEFE" d="M1000.27 628.85c3.43,0 6.2,-2.79 6.2,-6.22 0,-3.45 -2.77,-6.24 -6.2,-6.24 -3.42,0 -6.18,2.79 -6.18,6.24 0,3.43 2.76,6.22 6.18,6.22z"/>
<path fill="#FEFEFE" d="M1017.85 628.85c3.42,0 6.24,-2.79 6.24,-6.22 0,-3.45 -2.82,-6.24 -6.24,-6.24 -3.43,0 -6.2,2.79 -6.2,6.24 0,3.43 2.77,6.22 6.2,6.22z"/>
<path fill="#FEFEFE" d="M1035.47 628.85c3.43,0 6.19,-2.79 6.19,-6.22 0,-3.45 -2.76,-6.24 -6.19,-6.24 -3.43,0 -6.19,2.79 -6.19,6.24 0,3.43 2.76,6.22 6.19,6.22z"/>
<path fill="#FEFEFE" d="M1053.09 628.85c3.43,0 6.2,-2.79 6.2,-6.22 0,-3.45 -2.77,-6.24 -6.2,-6.24 -3.42,0 -6.24,2.79 -6.24,6.24 0,3.43 2.82,6.22 6.24,6.22z"/>
<path fill="#FEFEFE" d="M1088.3 628.85c3.41,0 6.19,-2.79 6.19,-6.22 0,-3.45 -2.78,-6.24 -6.2,-6.24 -3.47,0 -6.24,2.79 -6.24,6.24 0,3.43 2.77,6.22 6.25,6.22z"/>
<path fill="#FEFEFE" d="M718.7 644.66c3.43,0 6.2,-2.77 6.2,-6.19 0,-3.48 -2.77,-6.25 -6.2,-6.25 -3.47,0 -6.24,2.78 -6.24,6.25 0,3.42 2.77,6.19 6.24,6.19z"/>
<path fill="#FEFEFE" d="M701.23 644.66c3.43,0 6.19,-2.77 6.19,-6.19 0.01,-3.48 -2.76,-6.25 -6.19,-6.25 -3.42,0 -6.19,2.78 -6.19,6.25 0,3.42 2.77,6.19 6.19,6.19z"/>
<path fill="#FEFEFE" d="M736.28 644.66c3.42,0 6.24,-2.77 6.24,-6.19 0,-3.48 -2.82,-6.25 -6.25,-6.25 -3.42,0 -6.19,2.78 -6.19,6.25 0,3.42 2.77,6.19 6.2,6.19z"/>
<path fill="#FEFEFE" d="M753.85 644.66c3.48,0 6.24,-2.77 6.24,-6.19 0,-3.48 -2.76,-6.25 -6.24,-6.25 -3.42,0 -6.19,2.78 -6.19,6.25 0,3.42 2.77,6.19 6.19,6.19z"/>
<path fill="#FEFEFE" d="M771.47 644.66c3.43,0 6.2,-2.77 6.2,-6.19 0,-3.48 -2.77,-6.25 -6.2,-6.25 -3.42,0 -6.19,2.78 -6.19,6.25 0,3.42 2.77,6.19 6.19,6.19z"/>
<path fill="#FEFEFE" d="M789.1 644.66c3.42,0 6.19,-2.77 6.19,-6.19 0,-3.48 -2.77,-6.25 -6.19,-6.25 -3.43,0 -6.25,2.78 -6.25,6.25 0,3.42 2.82,6.19 6.25,6.19z"/>
<path fill="#FEFEFE" d="M806.67 644.66c3.42,0 6.19,-2.77 6.19,-6.19 0,-3.48 -2.77,-6.25 -6.19,-6.25 -3.43,0 -6.19,2.78 -6.19,6.25 0,3.42 2.76,6.19 6.19,6.19z"/>
<path fill="#FEFEFE" d="M824.29 644.66c3.43,0 6.2,-2.77 6.2,-6.19 0,-3.48 -2.77,-6.25 -6.2,-6.25 -3.42,0 -6.24,2.78 -6.24,6.25 0,3.42 2.82,6.19 6.24,6.19z"/>
<path fill="#FEFEFE" d="M841.87 644.66c3.42,0 6.24,-2.77 6.24,-6.19 0,-3.48 -2.82,-6.25 -6.25,-6.25 -3.42,0 -6.19,2.78 -6.19,6.25 0,3.42 2.77,6.19 6.2,6.19z"/>
<path fill="#FEFEFE" d="M859.79 644.86c3.43,0 6.24,-2.8 6.24,-6.21 0,-3.46 -2.82,-6.25 -6.24,-6.25 -3.42,0 -6.19,2.79 -6.19,6.25 0,3.41 2.77,6.21 6.19,6.21z"/>
<path fill="#FEFEFE" d="M877.37 644.86c3.42,0 6.24,-2.8 6.24,-6.21 0,-3.46 -2.82,-6.25 -6.24,-6.25 -3.43,0 -6.2,2.79 -6.2,6.25 0,3.41 2.77,6.21 6.2,6.21z"/>
<path fill="#FEFEFE" d="M912.56 644.86c3.43,0 6.25,-2.8 6.25,-6.21 0,-3.46 -2.82,-6.25 -6.25,-6.25 -3.42,0 -6.19,2.79 -6.19,6.25 0,3.41 2.77,6.21 6.19,6.21z"/>
<path fill="#FEFEFE" d="M930.19 644.86c3.42,0 6.19,-2.8 6.19,-6.21 0,-3.46 -2.77,-6.25 -6.19,-6.25 -3.43,0 -6.2,2.79 -6.2,6.25 0,3.41 2.77,6.21 6.2,6.21z"/>
<path fill="#FEFEFE" d="M947.81 644.86c3.42,0 6.19,-2.8 6.19,-6.21 0,-3.46 -2.77,-6.25 -6.19,-6.25 -3.42,0 -6.25,2.79 -6.25,6.25 0,3.41 2.83,6.21 6.25,6.21z"/>
<path fill="#FEFEFE" d="M965.38 644.86c3.43,0 6.24,-2.8 6.24,-6.21 0,-3.46 -2.81,-6.25 -6.24,-6.25 -3.42,0 -6.19,2.79 -6.19,6.25 0,3.41 2.77,6.21 6.19,6.21z"/>
<path fill="#FEFEFE" d="M983 644.86c3.43,0 6.2,-2.8 6.2,-6.21 0,-3.46 -2.77,-6.25 -6.2,-6.25 -3.47,0 -6.24,2.79 -6.24,6.25 0,3.41 2.77,6.21 6.24,6.21z"/>
<path fill="#FEFEFE" d="M1000.57 644.86c3.43,0 6.25,-2.8 6.25,-6.21 0,-3.46 -2.82,-6.25 -6.25,-6.25 -3.41,0 -6.18,2.79 -6.18,6.25 0,3.41 2.77,6.21 6.18,6.21z"/>
<path fill="#FEFEFE" d="M1018.2 644.86c3.42,0 6.19,-2.8 6.19,-6.21 0,-3.46 -2.77,-6.25 -6.19,-6.25 -3.42,0 -6.19,2.79 -6.19,6.25 0,3.41 2.77,6.21 6.19,6.21z"/>
<path fill="#FEFEFE" d="M701.08 660.52c3.43,0 6.19,-2.77 6.19,-6.22 0,-3.44 -2.77,-6.22 -6.19,-6.22 -3.42,0 -6.24,2.78 -6.24,6.22 0,3.45 2.82,6.22 6.24,6.22z"/>
<path fill="#FEFEFE" d="M718.7 660.52c3.43,0 6.2,-2.77 6.2,-6.22 0,-3.44 -2.77,-6.22 -6.2,-6.22 -3.47,0 -6.24,2.78 -6.24,6.22 0,3.45 2.77,6.22 6.24,6.22z"/>
<path fill="#FEFEFE" d="M736.28 660.52c3.42,0 6.24,-2.77 6.24,-6.22 0,-3.44 -2.82,-6.22 -6.25,-6.22 -3.42,0 -6.19,2.78 -6.19,6.22 0,3.45 2.77,6.22 6.2,6.22z"/>
<path fill="#FEFEFE" d="M753.85 660.52c3.48,0 6.24,-2.77 6.24,-6.22 0,-3.44 -2.76,-6.22 -6.24,-6.22 -3.42,0 -6.19,2.78 -6.19,6.22 0,3.45 2.77,6.22 6.19,6.22z"/>
<path fill="#FEFEFE" d="M771.47 660.52c3.43,0 6.2,-2.77 6.2,-6.22 0,-3.44 -2.77,-6.22 -6.2,-6.22 -3.42,0 -6.19,2.78 -6.19,6.22 0,3.45 2.77,6.22 6.19,6.22z"/>
<path fill="#FEFEFE" d="M789.1 660.52c3.42,0 6.19,-2.77 6.19,-6.22 0,-3.44 -2.77,-6.22 -6.19,-6.22 -3.43,0 -6.25,2.78 -6.25,6.22 0,3.45 2.82,6.22 6.25,6.22z"/>
<path fill="#FEFEFE" d="M806.67 660.52c3.42,0 6.19,-2.77 6.19,-6.22 0,-3.44 -2.77,-6.22 -6.19,-6.22 -3.43,0 -6.19,2.78 -6.19,6.22 0,3.45 2.76,6.22 6.19,6.22z"/>
<path fill="#FEFEFE" d="M824.29 660.52c3.43,0 6.2,-2.77 6.2,-6.22 0,-3.44 -2.77,-6.22 -6.2,-6.22 -3.42,0 -6.24,2.78 -6.24,6.22 0,3.45 2.82,6.22 6.24,6.22z"/>
<path fill="#FEFEFE" d="M841.87 660.52c3.42,0 6.24,-2.77 6.24,-6.22 0,-3.44 -2.82,-6.22 -6.25,-6.22 -3.42,0 -6.19,2.78 -6.19,6.22 0,3.45 2.77,6.22 6.2,6.22z"/>
<path fill="#FEFEFE" d="M877.37 660.67c3.42,0 6.24,-2.77 6.24,-6.19 0,-3.47 -2.82,-6.24 -6.24,-6.24 -3.43,0 -6.2,2.77 -6.2,6.24 0,3.42 2.77,6.19 6.2,6.19z"/>
<path fill="#FEFEFE" d="M894.99 660.67c3.42,0 6.19,-2.77 6.19,-6.19 0,-3.47 -2.77,-6.24 -6.19,-6.24 -3.43,0 -6.2,2.77 -6.2,6.24 0,3.42 2.77,6.19 6.2,6.19z"/>
<path fill="#FEFEFE" d="M930.19 660.67c3.42,0 6.19,-2.77 6.19,-6.19 0,-3.47 -2.77,-6.24 -6.19,-6.24 -3.43,0 -6.2,2.77 -6.2,6.24 0,3.42 2.77,6.19 6.2,6.19z"/>
<path fill="#FEFEFE" d="M947.81 660.67c3.42,0 6.19,-2.77 6.19,-6.19 0,-3.47 -2.77,-6.24 -6.19,-6.24 -3.42,0 -6.25,2.77 -6.25,6.24 0,3.42 2.83,6.19 6.25,6.19z"/>
<path fill="#FEFEFE" d="M965.38 660.67c3.43,0 6.24,-2.77 6.24,-6.19 0,-3.47 -2.81,-6.24 -6.24,-6.24 -3.42,0 -6.19,2.77 -6.19,6.24 0,3.42 2.77,6.19 6.19,6.19z"/>
<path fill="#FEFEFE" d="M983 660.67c3.43,0 6.2,-2.77 6.2,-6.19 0,-3.47 -2.77,-6.24 -6.2,-6.24 -3.47,0 -6.24,2.77 -6.24,6.24 0,3.42 2.77,6.19 6.24,6.19z"/>
<path fill="#FEFEFE" d="M1000.57 660.67c3.43,0 6.25,-2.77 6.25,-6.19 0,-3.47 -2.82,-6.24 -6.25,-6.24 -3.41,0 -6.18,2.77 -6.18,6.24 0,3.42 2.77,6.19 6.18,6.19z"/>
<path fill="#FEFEFE" d="M1018.2 660.67c3.42,0 6.19,-2.77 6.19,-6.19 0,-3.47 -2.77,-6.24 -6.19,-6.24 -3.42,0 -6.19,2.77 -6.19,6.24 0,3.42 2.77,6.19 6.19,6.19z"/>
<path fill="#FEFEFE" d="M701.08 676.36c3.43,0 6.19,-2.8 6.19,-6.22 0,-3.45 -2.77,-6.24 -6.19,-6.24 -3.42,0 -6.24,2.79 -6.24,6.24 0,3.42 2.82,6.22 6.24,6.22z"/>
<path fill="#FEFEFE" d="M718.7 676.36c3.43,0 6.2,-2.8 6.2,-6.22 0,-3.45 -2.77,-6.24 -6.2,-6.24 -3.47,0 -6.24,2.79 -6.24,6.24 0,3.42 2.77,6.22 6.24,6.22z"/>
<path fill="#FEFEFE" d="M736.28 676.36c3.42,0 6.24,-2.8 6.24,-6.22 0,-3.45 -2.82,-6.24 -6.25,-6.24 -3.42,0 -6.19,2.79 -6.19,6.24 0,3.42 2.77,6.22 6.2,6.22z"/>
<path fill="#FEFEFE" d="M753.85 676.36c3.48,0 6.24,-2.8 6.24,-6.22 0,-3.45 -2.76,-6.24 -6.24,-6.24 -3.42,0 -6.19,2.79 -6.19,6.24 0,3.42 2.77,6.22 6.19,6.22z"/>
<path fill="#FEFEFE" d="M771.47 676.36c3.43,0 6.2,-2.8 6.2,-6.22 0,-3.45 -2.77,-6.24 -6.2,-6.24 -3.42,0 -6.19,2.79 -6.19,6.24 0,3.42 2.77,6.22 6.19,6.22z"/>
<path fill="#FEFEFE" d="M789.1 676.36c3.42,0 6.19,-2.8 6.19,-6.22 0,-3.45 -2.77,-6.24 -6.19,-6.24 -3.43,0 -6.25,2.79 -6.25,6.24 0,3.42 2.82,6.22 6.25,6.22z"/>
<path fill="#FEFEFE" d="M806.67 676.36c3.42,0 6.19,-2.8 6.19,-6.22 0,-3.45 -2.77,-6.24 -6.19,-6.24 -3.43,0 -6.19,2.79 -6.19,6.24 0,3.42 2.76,6.22 6.19,6.22z"/>
<path fill="#FEFEFE" d="M894.99 676.51c3.42,0 6.19,-2.77 6.19,-6.22 0,-3.45 -2.77,-6.22 -6.19,-6.22 -3.43,0 -6.2,2.77 -6.2,6.22 0,3.45 2.77,6.22 6.2,6.22z"/>
<path fill="#FEFEFE" d="M947.81 676.51c3.42,0 6.19,-2.77 6.19,-6.22 0,-3.45 -2.77,-6.22 -6.19,-6.22 -3.42,0 -6.25,2.77 -6.25,6.22 0,3.45 2.83,6.22 6.25,6.22z"/>
<path fill="#FEFEFE" d="M965.38 676.51c3.43,0 6.24,-2.77 6.24,-6.22 0,-3.45 -2.81,-6.22 -6.24,-6.22 -3.42,0 -6.19,2.77 -6.19,6.22 0,3.45 2.77,6.22 6.19,6.22z"/>
<path fill="#FEFEFE" d="M983 676.51c3.43,0 6.2,-2.77 6.2,-6.22 0,-3.45 -2.77,-6.22 -6.2,-6.22 -3.47,0 -6.24,2.77 -6.24,6.22 0,3.45 2.77,6.22 6.24,6.22z"/>
<path fill="#FEFEFE" d="M1000.57 676.51c3.43,0 6.25,-2.77 6.25,-6.22 0,-3.45 -2.82,-6.22 -6.25,-6.22 -3.41,0 -6.18,2.77 -6.18,6.22 0,3.45 2.77,6.22 6.18,6.22z"/>
<path fill="#FEFEFE" d="M1018.2 676.51c3.42,0 6.19,-2.77 6.19,-6.22 0,-3.45 -2.77,-6.22 -6.19,-6.22 -3.42,0 -6.19,2.77 -6.19,6.22 0,3.45 2.77,6.22 6.19,6.22z"/>
<path fill="#FEFEFE" d="M1035.78 676.51c3.42,0 6.24,-2.77 6.24,-6.22 0,-3.45 -2.82,-6.22 -6.24,-6.22 -3.43,0 -6.2,2.77 -6.2,6.22 0,3.45 2.77,6.22 6.2,6.22z"/>
<path fill="#FEFEFE" d="M1053.39 676.51c3.43,0 6.2,-2.77 6.2,-6.22 0,-3.45 -2.77,-6.22 -6.2,-6.22 -3.42,0 -6.24,2.77 -6.24,6.22 0,3.45 2.82,6.22 6.24,6.22z"/>
<path fill="#FEFEFE" d="M1071.02 676.51c3.43,0 6.19,-2.77 6.19,-6.22 0,-3.45 -2.76,-6.22 -6.19,-6.22 -3.47,0 -6.24,2.77 -6.24,6.22 0,3.45 2.77,6.22 6.24,6.22z"/>
<path fill="#FEFEFE" d="M1088.6 676.51c3.42,0 6.19,-2.77 6.19,-6.22 0,-3.45 -2.77,-6.22 -6.19,-6.22 -3.43,0 -6.25,2.77 -6.25,6.22 0,3.45 2.82,6.22 6.25,6.22z"/>
<path fill="#FEFEFE" d="M701.08 692.22c3.43,0 6.19,-2.8 6.19,-6.22 0,-3.45 -2.77,-6.24 -6.19,-6.24 -3.42,0 -6.24,2.79 -6.24,6.24 0,3.42 2.82,6.22 6.24,6.22z"/>
<path fill="#FEFEFE" d="M718.7 692.22c3.43,0 6.2,-2.8 6.2,-6.22 0,-3.45 -2.77,-6.24 -6.2,-6.24 -3.47,0 -6.24,2.79 -6.24,6.24 0,3.42 2.77,6.22 6.24,6.22z"/>
<path fill="#FEFEFE" d="M736.28 692.22c3.42,0 6.24,-2.8 6.24,-6.22 0,-3.45 -2.82,-6.24 -6.25,-6.24 -3.42,0 -6.19,2.79 -6.19,6.24 0,3.42 2.77,6.22 6.2,6.22z"/>
<path fill="#FEFEFE" d="M753.85 692.22c3.48,0 6.24,-2.8 6.24,-6.22 0,-3.45 -2.76,-6.24 -6.24,-6.24 -3.42,0 -6.19,2.79 -6.19,6.24 0,3.42 2.77,6.22 6.19,6.22z"/>
<path fill="#FEFEFE" d="M771.47 692.22c3.43,0 6.2,-2.8 6.2,-6.22 0,-3.45 -2.77,-6.24 -6.2,-6.24 -3.42,0 -6.19,2.79 -6.19,6.24 0,3.42 2.77,6.22 6.19,6.22z"/>
<path fill="#FEFEFE" d="M789.1 692.22c3.42,0 6.19,-2.8 6.19,-6.22 0,-3.45 -2.77,-6.24 -6.19,-6.24 -3.43,0 -6.25,2.79 -6.25,6.24 0,3.42 2.82,6.22 6.25,6.22z"/>
<path fill="#FEFEFE" d="M859.79 692.37c3.43,0 6.24,-2.8 6.24,-6.22 0,-3.45 -2.82,-6.24 -6.24,-6.24 -3.42,0 -6.19,2.79 -6.19,6.24 0,3.42 2.77,6.22 6.19,6.22z"/>
<path fill="#FEFEFE" d="M894.99 692.37c3.42,0 6.19,-2.8 6.19,-6.22 0,-3.45 -2.77,-6.24 -6.19,-6.24 -3.43,0 -6.2,2.79 -6.2,6.24 0,3.42 2.77,6.22 6.2,6.22z"/>
<path fill="#FEFEFE" d="M912.56 692.37c3.43,0 6.25,-2.8 6.25,-6.22 0,-3.45 -2.82,-6.24 -6.25,-6.24 -3.42,0 -6.19,2.79 -6.19,6.24 0,3.42 2.77,6.22 6.19,6.22z"/>
<path fill="#FEFEFE" d="M912.56 708.2c3.43,0 6.25,-2.79 6.25,-6.21 0,-3.45 -2.82,-6.25 -6.25,-6.25 -3.42,0 -6.19,2.8 -6.19,6.25 0,3.42 2.77,6.21 6.19,6.21z"/>
<path fill="#FEFEFE" d="M965.38 692.37c3.43,0 6.24,-2.8 6.24,-6.22 0,-3.45 -2.81,-6.24 -6.24,-6.24 -3.42,0 -6.19,2.79 -6.19,6.24 0,3.42 2.77,6.22 6.19,6.22z"/>
<path fill="#FEFEFE" d="M983 692.37c3.43,0 6.2,-2.8 6.2,-6.22 0,-3.45 -2.77,-6.24 -6.2,-6.24 -3.47,0 -6.24,2.79 -6.24,6.24 0,3.42 2.77,6.22 6.24,6.22z"/>
<path fill="#FEFEFE" d="M1000.57 692.37c3.43,0 6.25,-2.8 6.25,-6.22 0,-3.45 -2.82,-6.24 -6.25,-6.24 -3.41,0 -6.18,2.79 -6.18,6.24 0,3.42 2.77,6.22 6.18,6.22z"/>
<path fill="#FEFEFE" d="M1035.78 692.37c3.42,0 6.24,-2.8 6.24,-6.22 0,-3.45 -2.82,-6.24 -6.24,-6.24 -3.43,0 -6.2,2.79 -6.2,6.24 0,3.42 2.77,6.22 6.2,6.22z"/>
<path fill="#FEFEFE" d="M1053.39 692.37c3.43,0 6.2,-2.8 6.2,-6.22 0,-3.45 -2.77,-6.24 -6.2,-6.24 -3.42,0 -6.24,2.79 -6.24,6.24 0,3.42 2.82,6.22 6.24,6.22z"/>
<path fill="#FEFEFE" d="M1071.02 692.37c3.43,0 6.19,-2.8 6.19,-6.22 0,-3.45 -2.76,-6.24 -6.19,-6.24 -3.47,0 -6.24,2.79 -6.24,6.24 0,3.42 2.77,6.22 6.24,6.22z"/>
<path fill="#FEFEFE" d="M1088.6 692.37c3.42,0 6.19,-2.8 6.19,-6.22 0,-3.45 -2.77,-6.24 -6.19,-6.24 -3.43,0 -6.25,2.79 -6.25,6.24 0,3.42 2.82,6.22 6.25,6.22z"/>
<path fill="#FEFEFE" d="M701.08 708.03c3.43,0 6.19,-2.77 6.19,-6.19 0,-3.48 -2.77,-6.25 -6.19,-6.25 -3.42,0 -6.24,2.77 -6.24,6.25 0,3.42 2.82,6.19 6.24,6.19z"/>
<path fill="#FEFEFE" d="M718.7 708.03c3.43,0 6.2,-2.77 6.2,-6.19 0,-3.48 -2.77,-6.25 -6.2,-6.25 -3.47,0 -6.24,2.77 -6.24,6.25 0,3.42 2.77,6.19 6.24,6.19z"/>
<path fill="#FEFEFE" d="M736.28 708.03c3.42,0 6.24,-2.77 6.24,-6.19 0,-3.48 -2.82,-6.25 -6.25,-6.25 -3.42,0 -6.19,2.77 -6.19,6.25 0,3.42 2.77,6.19 6.2,6.19z"/>
<path fill="#FEFEFE" d="M753.85 708.03c3.48,0 6.24,-2.77 6.24,-6.19 0,-3.48 -2.76,-6.25 -6.24,-6.25 -3.42,0 -6.19,2.77 -6.19,6.25 0,3.42 2.77,6.19 6.19,6.19z"/>
<path fill="#FEFEFE" d="M771.47 708.03c3.43,0 6.2,-2.77 6.2,-6.19 0,-3.48 -2.77,-6.25 -6.2,-6.25 -3.42,0 -6.19,2.77 -6.19,6.25 0,3.42 2.77,6.19 6.19,6.19z"/>
<path fill="#FEFEFE" d="M859.79 708.2c3.43,0 6.24,-2.79 6.24,-6.21 0,-3.45 -2.82,-6.25 -6.24,-6.25 -3.42,0 -6.19,2.8 -6.19,6.25 0,3.42 2.77,6.21 6.19,6.21z"/>
<path fill="#FEFEFE" d="M930.19 708.2c3.42,0 6.19,-2.79 6.19,-6.21 0,-3.45 -2.77,-6.25 -6.19,-6.25 -3.43,0 -6.2,2.8 -6.2,6.25 0,3.42 2.77,6.21 6.2,6.21z"/>
<path fill="#FEFEFE" d="M965.38 708.2c3.43,0 6.24,-2.79 6.24,-6.21 0,-3.45 -2.81,-6.25 -6.24,-6.25 -3.42,0 -6.19,2.8 -6.19,6.25 0,3.42 2.77,6.21 6.19,6.21z"/>
<path fill="#FEFEFE" d="M983 708.2c3.43,0 6.2,-2.79 6.2,-6.21 0,-3.45 -2.77,-6.25 -6.2,-6.25 -3.47,0 -6.24,2.8 -6.24,6.25 0,3.42 2.77,6.21 6.24,6.21z"/>
<path fill="#FEFEFE" d="M1000.57 708.38c3.43,0 6.25,-2.79 6.25,-6.21 0,-3.46 -2.82,-6.25 -6.25,-6.25 -3.41,0 -6.18,2.79 -6.18,6.25 0,3.42 2.77,6.21 6.18,6.21z"/>
<path fill="#FEFEFE" d="M1035.78 708.2c3.42,0 6.24,-2.79 6.24,-6.21 0,-3.45 -2.82,-6.25 -6.24,-6.25 -3.43,0 -6.2,2.8 -6.2,6.25 0,3.42 2.77,6.21 6.2,6.21z"/>
<path fill="#FEFEFE" d="M1053.39 708.2c3.43,0 6.2,-2.79 6.2,-6.21 0,-3.45 -2.77,-6.25 -6.2,-6.25 -3.42,0 -6.24,2.8 -6.24,6.25 0,3.42 2.82,6.21 6.24,6.21z"/>
<path fill="#FEFEFE" d="M1071.02 708.2c3.43,0 6.19,-2.79 6.19,-6.21 0,-3.45 -2.76,-6.25 -6.19,-6.25 -3.47,0 -6.24,2.8 -6.24,6.25 0,3.42 2.77,6.21 6.24,6.21z"/>
<path fill="#FEFEFE" d="M1088.6 708.2c3.42,0 6.19,-2.79 6.19,-6.21 0,-3.45 -2.77,-6.25 -6.19,-6.25 -3.43,0 -6.25,2.8 -6.25,6.25 0,3.42 2.82,6.21 6.25,6.21z"/>
<path fill="#FEFEFE" d="M718.7 723.87c3.43,0 6.2,-2.77 6.2,-6.23 0,-3.44 -2.77,-6.21 -6.2,-6.21 -3.47,0 -6.24,2.77 -6.24,6.21 0,3.46 2.77,6.23 6.24,6.23z"/>
<path fill="#FEFEFE" d="M736.28 723.87c3.42,0 6.24,-2.77 6.24,-6.23 0,-3.44 -2.82,-6.21 -6.25,-6.21 -3.42,0 -6.19,2.77 -6.19,6.21 0,3.46 2.77,6.23 6.2,6.23z"/>
<path fill="#FEFEFE" d="M753.85 723.87c3.48,0 6.24,-2.77 6.24,-6.23 0,-3.44 -2.76,-6.21 -6.24,-6.21 -3.42,0 -6.19,2.77 -6.19,6.21 0,3.46 2.77,6.23 6.19,6.23z"/>
<path fill="#FEFEFE" d="M771.47 723.87c3.43,0 6.2,-2.77 6.2,-6.23 0,-3.44 -2.77,-6.21 -6.2,-6.21 -3.42,0 -6.19,2.77 -6.19,6.21 0,3.46 2.77,6.23 6.19,6.23z"/>
<path fill="#FEFEFE" d="M947.46 723.97c3.42,0 6.19,-2.78 6.19,-6.2 0,-3.47 -2.77,-6.24 -6.19,-6.24 -3.43,0 -6.2,2.77 -6.2,6.24 0,3.42 2.77,6.2 6.2,6.2z"/>
<path fill="#FEFEFE" d="M930.19 724.02c3.42,0 6.19,-2.77 6.19,-6.2 0,-3.47 -2.77,-6.24 -6.19,-6.24 -3.43,0 -6.2,2.77 -6.2,6.24 0,3.43 2.77,6.2 6.2,6.2z"/>
<path fill="#FEFEFE" d="M983 724.02c3.43,0 6.2,-2.77 6.2,-6.2 0,-3.47 -2.77,-6.24 -6.2,-6.24 -3.47,0 -6.24,2.77 -6.24,6.24 0,3.43 2.77,6.2 6.24,6.2z"/>
<path fill="#FEFEFE" d="M1000.57 724.02c3.43,0 6.25,-2.77 6.25,-6.2 0,-3.47 -2.82,-6.24 -6.25,-6.24 -3.41,0 -6.18,2.77 -6.18,6.24 0,3.43 2.77,6.2 6.18,6.2z"/>
<path fill="#FEFEFE" d="M1053.39 724.02c3.43,0 6.2,-2.77 6.2,-6.2 0,-3.47 -2.77,-6.24 -6.2,-6.24 -3.42,0 -6.24,2.77 -6.24,6.24 0,3.43 2.82,6.2 6.24,6.2z"/>
<path fill="#FEFEFE" d="M1071.02 724.02c3.43,0 6.19,-2.77 6.19,-6.2 0,-3.47 -2.76,-6.24 -6.19,-6.24 -3.47,0 -6.24,2.77 -6.24,6.24 0,3.43 2.77,6.2 6.24,6.2z"/>
<path fill="#FEFEFE" d="M1088.6 724.02c3.42,0 6.19,-2.77 6.19,-6.2 0,-3.47 -2.77,-6.24 -6.19,-6.24 -3.43,0 -6.25,2.77 -6.25,6.24 0,3.43 2.82,6.2 6.25,6.2z"/>
<path fill="#FEFEFE" d="M983 739.88c3.43,0 6.2,-2.77 6.2,-6.22 0,-3.45 -2.77,-6.22 -6.2,-6.22 -3.47,0 -6.24,2.77 -6.24,6.22 0,3.45 2.77,6.22 6.24,6.22z"/>
<path fill="#FEFEFE" d="M1105.87 470.44c2.62,0 4.9,-1.63 5.81,-3.95 -1.8,-2.87 -3.67,-5.69 -5.59,-8.48l-0.22 -0.01c-3.43,0 -6.2,2.77 -6.2,6.22 0,3.45 2.77,6.22 6.2,6.22z"/>
<path fill="#FEFEFE" d="M1105.87 486.28c3.42,0 6.24,-2.8 6.24,-6.22 0.01,-3.45 -2.82,-6.24 -6.24,-6.24 -3.43,0 -6.2,2.79 -6.2,6.24 0,3.42 2.77,6.22 6.2,6.22z"/>
<path fill="#FEFEFE" d="M1105.87 502.14c3.42,0 6.24,-2.8 6.24,-6.22 0.01,-3.45 -2.82,-6.24 -6.24,-6.24 -3.43,0 -6.2,2.79 -6.2,6.24 0,3.42 2.77,6.22 6.2,6.22z"/>
<path fill="#FEFEFE" d="M1122.63 486.28l0.32 -0.01c-1.71,-3.35 -3.5,-6.65 -5.35,-9.91 -0.76,1.03 -1.21,2.31 -1.21,3.7 0,3.42 2.77,6.22 6.24,6.22z"/>
<path fill="#FEFEFE" d="M1122.63 502.14c2.73,0 5.05,-1.78 5.87,-4.23 -1.17,-2.63 -2.39,-5.24 -3.65,-7.82 -0.69,-0.26 -1.44,-0.41 -2.22,-0.41 -3.47,0 -6.24,2.79 -6.24,6.24 0,3.42 2.77,6.22 6.24,6.22z"/>
<path fill="#FEFEFE" d="M1105.87 517.98c3.42,0 6.24,-2.8 6.24,-6.22 0.01,-3.45 -2.82,-6.25 -6.24,-6.25 -3.43,0 -6.2,2.8 -6.2,6.25 0,3.42 2.77,6.22 6.2,6.22z"/>
<path fill="#FEFEFE" d="M1105.87 533.81c3.42,0 6.24,-2.77 6.24,-6.22 0.01,-3.45 -2.82,-6.22 -6.24,-6.22 -3.43,0 -6.2,2.77 -6.2,6.22 0,3.45 2.77,6.22 6.2,6.22z"/>
<path fill="#FEFEFE" d="M1105.87 549.65c3.42,0 6.24,-2.8 6.24,-6.22 0.01,-3.45 -2.82,-6.24 -6.24,-6.24 -3.43,0 -6.2,2.79 -6.2,6.24 0,3.42 2.77,6.22 6.2,6.22z"/>
<path fill="#FEFEFE" d="M1105.87 565.48c3.42,0 6.24,-2.79 6.24,-6.22 0.01,-3.45 -2.82,-6.24 -6.24,-6.24 -3.43,0 -6.2,2.79 -6.2,6.24 0,3.43 2.77,6.22 6.2,6.22z"/>
<path fill="#FEFEFE" d="M1105.87 581.32c3.42,0 6.24,-2.77 6.24,-6.2 0.01,-3.47 -2.82,-6.24 -6.24,-6.24 -3.43,0 -6.2,2.77 -6.2,6.24 0,3.43 2.77,6.2 6.2,6.2z"/>
<path fill="#FEFEFE" d="M1105.87 597.16c3.42,0 6.24,-2.78 6.24,-6.22 0.01,-3.45 -2.82,-6.22 -6.24,-6.22 -3.43,0 -6.2,2.77 -6.2,6.22 0,3.44 2.77,6.22 6.2,6.22z"/>
<path fill="#FEFEFE" d="M1105.87 628.85c3.42,0 6.24,-2.79 6.24,-6.22 0.01,-3.45 -2.82,-6.24 -6.24,-6.24 -3.43,0 -6.2,2.79 -6.2,6.24 0,3.43 2.77,6.22 6.2,6.22z"/>
<path fill="#FEFEFE" d="M1053.45 754.08c3.42,0 6.19,-2.78 6.19,-6.2 0,-3.47 -2.77,-6.24 -6.19,-6.24 -3.43,0 -6.24,2.77 -6.24,6.24 0,3.42 2.81,6.2 6.24,6.2z"/>
<path fill="#FEFEFE" d="M789.2 424.37c3.42,0 6.24,-2.77 6.24,-6.19 0,-3.48 -2.82,-6.25 -6.24,-6.25 -3.43,0 -6.2,2.77 -6.2,6.25 0,3.42 2.77,6.19 6.2,6.19z"/>
<path fill="#FEFEFE" d="M1122.78 517.34c3.43,0 6.25,-2.79 6.25,-6.21 0,-3.45 -2.82,-6.25 -6.25,-6.25 -3.42,0 -6.19,2.8 -6.19,6.25 0,3.42 2.77,6.21 6.19,6.21z"/>
<path fill="#FEFEFE" d="M1122.78 533.18c3.43,0 6.25,-2.8 6.25,-6.22 0,-3.45 -2.82,-6.24 -6.25,-6.24 -3.42,0 -6.19,2.79 -6.19,6.24 0,3.42 2.77,6.22 6.19,6.22z"/>
<path fill="#FEFEFE" d="M1122.78 549.01c3.43,0 6.25,-2.76 6.25,-6.19 0,-3.47 -2.82,-6.24 -6.25,-6.24 -3.42,0 -6.19,2.77 -6.19,6.24 0,3.43 2.77,6.19 6.19,6.19z"/>
<path fill="#FEFEFE" d="M1122.78 564.85c3.43,0 6.25,-2.77 6.25,-6.22 0,-3.45 -2.82,-6.22 -6.25,-6.22 -3.42,0 -6.19,2.77 -6.19,6.22 0,3.45 2.77,6.22 6.19,6.22z"/>
<path fill="#FEFEFE" d="M1122.78 580.69c3.43,0 6.25,-2.8 6.25,-6.22 0,-3.45 -2.82,-6.25 -6.25,-6.25 -3.42,0 -6.19,2.8 -6.19,6.25 0,3.42 2.77,6.22 6.19,6.22z"/>
<path fill="#FEFEFE" d="M1122.78 596.55c3.43,0 6.25,-2.8 6.25,-6.22 0,-3.45 -2.82,-6.24 -6.25,-6.24 -3.42,0 -6.19,2.79 -6.19,6.24 0,3.42 2.77,6.22 6.19,6.22z"/>
<path fill="#FEFEFE" d="M1122.78 612.36c3.43,0 6.25,-2.77 6.25,-6.19 0,-3.47 -2.82,-6.24 -6.25,-6.24 -3.42,0 -6.19,2.77 -6.19,6.24 0,3.42 2.77,6.19 6.19,6.19z"/>
<path fill="#FEFEFE" d="M1122.78 629.15c3.43,0 6.25,-2.79 6.25,-6.22 0,-3.44 -2.82,-6.24 -6.25,-6.24 -3.42,0 -6.19,2.8 -6.19,6.24 0,3.43 2.77,6.22 6.19,6.22z"/>
<path fill="#FEFEFE" d="M1105.87 676.26c3.42,0 6.24,-2.8 6.24,-6.22 0.01,-3.45 -2.82,-6.24 -6.24,-6.24 -3.43,0 -6.2,2.79 -6.2,6.24 0,3.42 2.77,6.22 6.2,6.22z"/>
<path fill="#FEFEFE" d="M1105.87 691.64c3.42,0 6.24,-2.77 6.24,-6.22 0.01,-3.45 -2.82,-6.22 -6.24,-6.22 -3.43,0 -6.2,2.77 -6.2,6.22 0,3.45 2.77,6.22 6.2,6.22z"/>
<path fill="#FEFEFE" d="M1071.07 661.53c3.42,0 6.19,-2.77 6.19,-6.22 0,-3.44 -2.77,-6.22 -6.19,-6.22 -3.42,0 -6.19,2.78 -6.19,6.22 0,3.45 2.77,6.22 6.19,6.22z"/>
<path fill="#FEFEFE" d="M912.86 771.35c3.43,0 6.2,-2.77 6.2,-6.2 0,-3.47 -2.77,-6.24 -6.2,-6.24 -3.42,0 -6.19,2.77 -6.19,6.24 0,3.43 2.77,6.2 6.19,6.2z"/>
<path fill="#FEFEFE" d="M718.86 739.78c3.42,0 6.24,-2.8 6.24,-6.22 0,-3.45 -2.82,-6.25 -6.24,-6.25 -3.43,0 -6.2,2.8 -6.2,6.25 0,3.42 2.77,6.22 6.2,6.22z"/>
<path fill="#FEFEFE" d="M859.59 660.8c3.42,0 6.25,-2.77 6.25,-6.2 0,-3.47 -2.83,-6.23 -6.25,-6.23 -3.42,0 -6.19,2.76 -6.19,6.23 0,3.43 2.77,6.2 6.19,6.2z"/>
<path fill="#FEFEFE" d="M876.96 676.84c3.43,0 6.24,-2.77 6.24,-6.2 0,-3.47 -2.81,-6.24 -6.24,-6.24 -3.42,0 -6.19,2.77 -6.19,6.24 0,3.43 2.77,6.2 6.19,6.2z"/>
<path fill="#FEFEFE" d="M929.63 739.63c3.42,0 6.2,-2.79 6.2,-6.22 0,-3.45 -2.78,-6.25 -6.2,-6.25 -3.42,0 -6.24,2.8 -6.24,6.25 0,3.42 2.82,6.22 6.24,6.22z"/>
<path fill="#FEFEFE" d="M912.81 755.97c3.43,0 6.19,-2.79 6.19,-6.22 0,-3.45 -2.77,-6.25 -6.19,-6.25 -3.42,0 -6.24,2.8 -6.24,6.25 0,3.43 2.82,6.22 6.24,6.22z"/>
<path fill="#FEFEFE" d="M895.19 644.09c3.42,0 6.19,-2.8 6.19,-6.23 0,-3.45 -2.77,-6.24 -6.19,-6.24 -3.42,0 -6.25,2.79 -6.25,6.24 0,3.43 2.83,6.23 6.25,6.23z"/>
<path fill="#FEFEFE" d="M823.94 454.81c3.43,0 6.19,-2.8 6.19,-6.22 0,-3.45 -2.76,-6.25 -6.19,-6.25 -3.42,0 -6.19,2.8 -6.19,6.25 0,3.42 2.77,6.22 6.19,6.22z"/>
<path fill="#FEFEFE" d="M895.19 755.92c3.42,0 6.19,-2.8 6.19,-6.22 0,-3.45 -2.77,-6.25 -6.19,-6.25 -3.42,0 -6.25,2.8 -6.25,6.25 0,3.42 2.83,6.22 6.25,6.22z"/>
<path fill="#FEFEFE" d="M912.92 799.3c3.42,0 6.19,-2.78 6.19,-6.2 0,-3.48 -2.77,-6.24 -6.19,-6.24 -3.43,0 -6.2,2.76 -6.2,6.24 0,3.42 2.77,6.2 6.2,6.2z"/>
<path fill="#FEFEFE" d="M859.44 723.87c3.42,0 6.19,-2.77 6.19,-6.23 0,-3.44 -2.77,-6.21 -6.19,-6.21 -3.47,0 -6.24,2.77 -6.24,6.21 0,3.46 2.77,6.23 6.24,6.23z"/>
<path fill="#FEFEFE" d="M893.83 518.2c3.43,0 6.19,-2.8 6.19,-6.22 0,-3.45 -2.76,-6.24 -6.19,-6.24 -3.43,0 -6.19,2.79 -6.19,6.24 0,3.42 2.76,6.22 6.19,6.22z"/>
<path fill="#FEFEFE" d="M1105.56 708.2c3.43,0 6.25,-2.79 6.25,-6.21 0,-3.45 -2.82,-6.25 -6.25,-6.25 -3.42,0 -6.19,2.8 -6.19,6.25 0,3.42 2.77,6.21 6.19,6.21z"/>
<path fill="#FEFEFE" d="M1105.56 724.02c3.43,0 6.25,-2.77 6.25,-6.2 0,-3.47 -2.82,-6.24 -6.25,-6.24 -3.42,0 -6.19,2.77 -6.19,6.24 0,3.43 2.77,6.2 6.19,6.2z"/>
<path fill="#FEFEFE" d="M1122.88 676.51c3.43,0 6.2,-2.77 6.2,-6.22 0,-3.45 -2.77,-6.22 -6.2,-6.22 -3.42,0 -6.24,2.77 -6.24,6.22 0,3.45 2.82,6.22 6.24,6.22z"/>
<path fill="#FEFEFE" d="M1122.88 691.64c3.43,0 6.2,-2.77 6.2,-6.22 0,-3.45 -2.77,-6.22 -6.2,-6.22 -3.42,0 -6.24,2.77 -6.24,6.22 0,3.45 2.82,6.22 6.24,6.22z"/>
<path fill="#FEFEFE" d="M1122.54 708.2c1.4,0 2.69,-0.47 3.72,-1.25 0.84,-1.77 1.66,-3.55 2.45,-5.34 -0.2,-3.28 -2.88,-5.87 -6.17,-5.87 -3.43,0 -6.2,2.8 -6.2,6.25 0,3.42 2.77,6.21 6.2,6.21z"/>
<path fill="#FEFEFE" d="M1123.93 711.74c-0.45,-0.11 -0.91,-0.16 -1.39,-0.16 -3.43,0 -6.2,2.77 -6.2,6.24 0,1.8 0.76,3.41 1.97,4.54 1.96,-3.49 3.83,-7.03 5.62,-10.62z"/>
<path fill="#FEFEFE" d="M1139.5 549.01c2.03,0 3.82,-0.94 4.96,-2.41 -0.69,-3.15 -1.41,-6.29 -2.21,-9.39 -0.83,-0.4 -1.76,-0.63 -2.75,-0.63 -3.42,0 -6.2,2.77 -6.2,6.24 0,3.43 2.78,6.19 6.2,6.19z"/>
<path fill="#FEFEFE" d="M1139.5 564.85c3.48,0 6.24,-2.77 6.24,-6.22 0,-3.45 -2.76,-6.22 -6.24,-6.22 -3.42,0 -6.2,2.77 -6.2,6.22 0,3.45 2.78,6.22 6.2,6.22z"/>
<path fill="#FEFEFE" d="M1139.5 580.69c3.48,0 6.24,-2.8 6.24,-6.22 0,-3.45 -2.76,-6.25 -6.24,-6.25 -3.42,0 -6.2,2.8 -6.2,6.25 0,3.42 2.78,6.22 6.2,6.22z"/>
<path fill="#FEFEFE" d="M1139.5 596.55c3.48,0 6.24,-2.8 6.24,-6.22 0,-3.45 -2.76,-6.24 -6.24,-6.24 -3.42,0 -6.2,2.79 -6.2,6.24 0,3.42 2.78,6.22 6.2,6.22z"/>
<path fill="#FEFEFE" d="M1139.5 612.36c3.48,0 6.24,-2.77 6.24,-6.19 0,-3.47 -2.76,-6.24 -6.24,-6.24 -3.42,0 -6.2,2.77 -6.2,6.24 0,3.42 2.78,6.19 6.2,6.19z"/>
<path fill="#FEFEFE" d="M1139.5 628.92c3.48,0 6.24,-2.79 6.24,-6.21 0,-3.45 -2.76,-6.24 -6.24,-6.24 -3.42,0 -6.2,2.79 -6.2,6.24 0,3.42 2.78,6.21 6.2,6.21z"/>
<path fill="#FEFEFE" d="M1122.78 644.66c3.43,0 6.25,-2.77 6.25,-6.19 0,-3.48 -2.82,-6.25 -6.25,-6.25 -3.42,0 -6.19,2.78 -6.19,6.25 0,3.42 2.77,6.19 6.19,6.19z"/>
<path fill="#FEFEFE" d="M1122.78 661.45c3.43,0 6.25,-2.77 6.25,-6.21 0,-3.46 -2.82,-6.22 -6.25,-6.22 -3.42,0 -6.19,2.76 -6.19,6.22 0,3.44 2.77,6.21 6.19,6.21z"/>
<path fill="#FEFEFE" d="M1139.5 644.66c3.48,0 6.24,-2.77 6.24,-6.19 0,-3.48 -2.76,-6.25 -6.24,-6.25 -3.42,0 -6.2,2.78 -6.2,6.25 0,3.42 2.78,6.19 6.2,6.19z"/>
<path fill="#FEFEFE" d="M1139.5 661.23c3.48,0 6.24,-2.8 6.24,-6.22 0,-3.45 -2.76,-6.24 -6.24,-6.24 -3.42,-0.01 -6.2,2.79 -6.2,6.24 0,3.42 2.78,6.22 6.2,6.22z"/>
<path fill="#D39D1F" d="M899.92 353.94c-135.65,0 -246.01,110.37 -246.01,246.04 0,135.66 110.36,246.03 246.01,246.03 135.68,0 246.07,-110.37 246.07,-246.03 0,-135.67 -110.39,-246.04 -246.07,-246.04l0 0zm0 501.36c-140.77,0 -255.3,-114.54 -255.3,-255.32 0,-140.79 114.53,-255.33 255.3,-255.33 140.81,0 255.35,114.54 255.35,255.33 0,140.78 -114.54,255.32 -255.35,255.32l0 0z"/>
</g>
<g>
<path fill="#2B2A29" d="M0 0l1800 0 0 1200 -1800 0 0 -1200zm1800 0l-1800 0 0 1200 1800 0 0 -1200z"/>
</g>
</g>
<g>
<path fill="#B3B3B3" d="M0 0l1800 0 0 1200 -1800 0 0 -1200zm1794.69 5.31l-1789.38 0 0 1189.38 1789.38 0 0 -1189.38z"/>
</g>
</g>
</g>
</svg>
